<?xml version="1.0" standalone="no"?>
<!DOCTYPE svg PUBLIC "-//W3C//DTD SVG 1.1//EN" "http://www.w3.org/Graphics/SVG/1.1/DTD/svg11.dtd" >
<svg xmlns="http://www.w3.org/2000/svg">
<metadata></metadata>
<defs>
<font id="arizoniaregular" horiz-adv-x="897" >
<font-face units-per-em="2048" ascent="1638" descent="-410" />
<missing-glyph horiz-adv-x="546" />
<glyph horiz-adv-x="2048" />
<glyph horiz-adv-x="2048" />
<glyph unicode="&#xd;" horiz-adv-x="681" />
<glyph unicode=" "  horiz-adv-x="546" />
<glyph unicode="&#x09;" horiz-adv-x="546" />
<glyph unicode="&#xa0;" horiz-adv-x="546" />
<glyph unicode="!" horiz-adv-x="796" d="M96 37q0 61 35 98q49 51 102 51q23 0 42.5 -15t19.5 -55t-42 -85t-93 -45q-25 0 -44.5 16t-19.5 35zM260 399q0 23 6 50q20 135 93 281.5t137 217.5q146 162 252 162q66 0 65 -45q0 -33 -117 -131q-55 -45 -94 -85t-93 -116t-94 -148.5t-67 -142.5q-57 -139 -8 -161 q12 -4 8 -11.5t-16 -1.5q-72 37 -72 131z" />
<glyph unicode="&#x22;" horiz-adv-x="643" d="M8 469q0 6 8 8q88 8 162 85t86 167q-47 -59 -114 -59q-25 0 -40.5 14t-15.5 31q0 55 47 102q51 51 103.5 51t70 -28.5t17.5 -60t-29 -99.5t-110 -139q-92 -78 -177 -78q-8 0 -8 6zM291 469q0 6 8 8q90 8 164 85t86 167q-59 -59 -115 -59q-25 0 -40 14t-15 31.5t6 43 t45 64.5q45 45 97.5 45t69.5 -28.5t17 -60t-28.5 -99.5t-110.5 -139q-90 -78 -174 -78q-10 0 -10 6z" />
<glyph unicode="#" horiz-adv-x="1458" d="M20 939q0 13 19 13l461 -16q260 385 284 385l58 8q23 0 22.5 -9t-10.5 -22q-139 -184 -268 -364q94 -2 184 -2t180 2q256 387 285 387l57 8q23 0 23 -9t-10 -22q-106 -137 -267 -362q35 2 86 2l117 -2q141 0 182 9t41 -11q0 -41 -139 -49q-61 -2 -166.5 -5t-163.5 -6 q-123 -178 -213 -315q315 0 445 25q29 6 29.5 -16.5t-46.5 -35.5q-123 -31 -471 -40q-133 -209 -186 -330q-8 -18 -16.5 -18.5t-12.5 1.5q-20 14 3.5 80t140.5 264h-140.5t-238.5 3q-137 -219 -187 -330q-8 -18 -16 -18.5t-12 1.5q-20 14 4 83t141 266q-143 4 -151 14 q-2 2 -23.5 24.5t-21.5 35t18 12.5l225 -11q82 133 187 293q-375 4 -387 21q-2 2 -24 22.5t-22 33.5zM336 567q238 -8 373 -8q87 143 198 311q-246 -8 -370 -8q-41 -57 -201 -295z" />
<glyph unicode="$" horiz-adv-x="1085" d="M147 424q80 -74 275 -74q39 0 78 4l155 264q-61 25 -106 71t-45 91q0 70 50 130.5t126 95.5q111 53 283 92q106 158 122 157l15 2l10 -2q10 0 10 -10q0 -14 -19.5 -38.5t-72.5 -98.5q10 2 31 2q123 0 123 -80q0 -6 -1 -20.5t-43 -60.5t-90.5 -90t-87 -101.5t-34.5 -102.5 q-39 31 -39 66t12 63q51 133 203 236q-10 18 -44 18t-104 -32q-113 -162 -247 -381l41 -19q119 -59 118.5 -156.5t-100.5 -144.5q-61 -33 -164.5 -39t-107.5 -6q-94 -172 -118 -231.5t-33 -59.5t-9 23q0 61 115 268q-98 0 -189.5 41t-112.5 123zM549 360q109 14 201 95 q32 28 32 64t-47 65q-10 8 -43 18q-47 -76 -143 -242zM586 730q-4 -36 17.5 -53.5t66.5 -35.5q61 102 215 342q-131 -57 -213 -137t-86 -116z" />
<glyph unicode="%" horiz-adv-x="1337" d="M100.5 723.5q-0.5 32.5 9 78.5t73 129t128.5 134q100 84 217 84l105 -21q25 -14 37 -26q18 -8 58 -8t146.5 32.5t145.5 32.5t39 -16.5t-21 -44.5q-223 -297 -493.5 -730.5t-364.5 -654.5q-10 -23 -19 -22.5t-9 22.5q0 102 298 611.5t447 707.5q-33 -16 -81 -16t-118 41 q10 -27 11 -56q0 -94 -105 -210q-94 -102 -252 -156q-76 -27 -141.5 -27t-95.5 56q-14 27 -14.5 59.5zM139 721q0 -49 37 -68q16 -8 48 -8t107 31t140 102q100 106 100 191q0 49 -37.5 66.5t-78.5 17.5q-88 0 -187.5 -91.5t-124.5 -201.5q-4 -23 -4 -39zM680 141.5 q0 32.5 9 78.5t71.5 128t128.5 135q102 86 221 86q51 0 102 -20q74 -39 74 -129q0 -100 -97 -204.5t-257 -160.5q-76 -27 -140.5 -26.5t-95.5 51.5q-16 29 -16 61.5zM719 139q0 -76 78 -76q39 0 114.5 32t153.5 116q86 96 86 176q0 49 -37 67.5t-78 18.5q-90 0 -190.5 -93 t-122.5 -204q-4 -21 -4 -37z" />
<glyph unicode="&#x26;" horiz-adv-x="1308" d="M2.5 210q-0.5 30 3.5 48q12 63 79 135t185 137l107 60q37 340 428 581q154 96 258 97q35 0 63 -11q68 -25 68 -88q0 -111 -150 -229q-82 -68 -178 -125l-356 -213v-60t18 -122q156 88 340 119q90 16 158 16q168 0 191 -106q2 -14 2 -27q0 -70 -76 -146 q-133 -133 -447 -229q125 -170 275 -231q100 -43 155.5 -43t77 23.5t21.5 49t-29 60.5q-61 80 -180 80q-12 0 -38 -3t-26 3q-6 16 29 22q55 8 102 8q131 0 187 -71q29 -33 28.5 -67t-24.5 -68q-47 -70 -152 -70q-82 0 -172 39q-211 89 -354 239q-188 -45 -305 -24 q-211 37 -268 147q-20 39 -20.5 69zM84 162q0 -74 106 -113q66 -27 144 -26q127 0 235 22q-104 121 -149 240q-70 -41 -84 -56.5t-16.5 -14.5t-0.5 13q6 45 78 105l4 2q-29 96 -28 184l-60 -37q-113 -78 -171 -161.5t-58 -157.5zM518 666q37 23 125 71q184 109 277.5 191 t93.5 148.5t-70 66.5q-80 0 -190 -76q-211 -143 -236 -401zM547 344q43 -145 129 -270q250 78 407 215q86 74 86 121q0 57 -118 57q-201 0 -504 -123z" />
<glyph unicode="'" horiz-adv-x="305" d="M8 469q0 6 8 8q88 8 162 85t86 167q-47 -59 -114 -59q-25 0 -40.5 14t-15.5 31q0 55 47 102q51 51 103.5 51t70 -28.5t17.5 -60t-29 -99.5t-110 -139q-92 -78 -177 -78q-8 0 -8 6z" />
<glyph unicode="(" horiz-adv-x="741" d="M131 164q0 80 16.5 170t51 200.5t91 226.5t128.5 220q157 235 360 346q27 14 46.5 14t19.5 -15t-27 -34q-111 -72 -215 -235q-205 -319 -246 -709q-6 -45 -6 -86q0 -121 43 -201q16 -31 80 -41q10 -2 18.5 -15t-4.5 -19q-100 -37 -235 -6q-72 16 -94 57q-27 47 -27 127z " />
<glyph unicode=")" horiz-adv-x="817" d="M63 -91q0 15 27 34q111 74 215 237q205 317 248 707q4 45 4 86q0 121 -43 201q-14 31 -80 40q-10 2 -18 16.5t4 18.5q43 18 110.5 18.5t132 -14t87.5 -55.5q27 -47 26.5 -126t-17 -170t-51 -200.5t-91 -225.5t-125.5 -220q-160 -235 -363 -346q-27 -16 -46.5 -16 t-19.5 15z" />
<glyph unicode="*" horiz-adv-x="1093" d="M45 324q0 14 18 16q133 25 367 104q-129 123 -246 283q-14 23 -0.5 32t25.5 -3q98 -102 293 -248q119 207 252 356q8 10 19 10t15.5 -8t-2.5 -20q-141 -213 -188 -363q186 29 264 29q145 0 158 -16q4 -7 4 -13q0 -16 -18 -16q-209 -20 -385 -64q133 -80 284 -223 q18 -18 7 -30.5t-25 -2.5q-129 88 -340 189q-78 -221 -168 -367q-8 -16 -16.5 -16t-17.5 6t-1 23q55 143 107 370q-182 -41 -379 -49q-27 0 -27 21z" />
<glyph unicode="+" d="M178.5 346q-0.5 29 9 56.5t23.5 27.5q143 14 289 14q86 141 190 246q12 12 31.5 12t45.5 -7t13 -17q-109 -113 -196 -234q195 -2 297 -30q14 -4 14 -16.5t-9 -22.5t-24 -10q-86 8 -169 8t-163 -8q-131 -202 -141 -347q0 -20 -21.5 -20t-21.5 25q12 150 107 335 q-90 -10 -258 -39q-16 -2 -16.5 27z" />
<glyph unicode="," horiz-adv-x="468" d="M-20 -213q4 4 8 6q90 8 163.5 85t86.5 167l-11 -8q-51 -51 -104 -51q-25 0 -40 14t-15 31.5t6 44t45 63.5q45 45 97 45t69.5 -28.5t17.5 -60.5t-28.5 -99.5t-110.5 -139t-170 -77.5q-12 0 -14 8z" />
<glyph unicode="-" d="M178 347q0 28 9.5 55.5t23.5 27.5q141 14 267 14t235 -16q25 -4 24.5 -20.5t-20.5 -16.5q-147 -4 -309 -33q-209 -39 -219.5 -39t-10.5 28z" />
<glyph unicode="." horiz-adv-x="413" d="M96 37q0 61 35 98q49 51 102 51q23 0 42.5 -15t19.5 -55t-42 -85t-93 -45q-25 0 -44.5 16t-19.5 35z" />
<glyph unicode="/" horiz-adv-x="1218" d="M23 -233q0 86 237.5 472t436 671.5t221.5 285.5l71 10q29 0 29 -14q-2 -10 -12 -25q-262 -340 -553 -771t-379 -638q-10 -23 -25 -22q-6 0 -16 6t-10 25z" />
<glyph unicode="0" horiz-adv-x="1105" d="M57 143q0 274 334 555q166 135 359 162q25 2 47 2q77 0 145 -35q129 -63 129 -215q0 -51 -27 -120q-41 -119 -151 -238q-137 -150 -367 -246q-156 -63 -247 -63q-221 0 -222 198zM125 137q0 -84 68 -117q29 -14 79 -14t142 39q143 63 276 207q88 96 118 175t30 112 q0 100 -63.5 130.5t-133.5 30.5q-125 0 -269.5 -116.5t-215.5 -298.5q-31 -82 -31 -148z" />
<glyph unicode="1" horiz-adv-x="634" d="M24.5 498q0.5 20 35 39.5t203.5 148.5t279.5 186.5t158 57.5t65.5 -12.5t18 -17.5t-2 -7l-10 -2h-8q-51 0 -113.5 -68.5t-126 -191.5t-116 -241t-106.5 -246t-75 -171q-100 14 -139 84q-10 18 -10 52t20 94q90 250 260 471q-117 -78 -303 -178q-31 -18 -30.5 2z" />
<glyph unicode="2" horiz-adv-x="1193" d="M-53 6q0 45 41 86q88 84 284 121q72 14 111 33q348 150 461 213q180 104 180 219q0 66 -52 113t-113.5 56t-117.5 9q-166 0 -291.5 -65.5t-125.5 -114.5q0 -35 65 -35q53 0 135 21q166 41 238 116q8 8 12 0q4 -10 4 -18q0 -47 -84 -100.5t-180 -77t-179 -23.5t-114 41 q-12 16 -12 35q0 39 60.5 95t195.5 110q231 92 422 92q250 0 323 -131q25 -35 25 -76t-23 -90q-45 -96 -182 -183t-545 -225q234 -4 418 -67q94 -31 141.5 -83t47.5 -103.5t-15 -51.5q-12 0 -8 11.5t4 17.5q0 27 -45 53q-115 66 -414 66q-176 0 -265 -18.5t-148.5 -37 t-96 -31t-84.5 -20.5q-74 -10 -73 43z" />
<glyph unicode="3" horiz-adv-x="1230" d="M-10 -8q0 139 264 248q133 53 373 53q129 0 155 -27q10 -10 4 -16t-20 -5t-47 1t-203 -37t-288.5 -87t-149.5 -87t-31 -55q0 -55 98 -86q63 -20 150 -21q199 0 430 107q270 123 270 270q0 76 -83 144.5t-203 78.5q-61 4 -62 33q0 37 104.5 43t185.5 50t81 122 q0 94 -103 133q-45 18 -112.5 18t-171 -24.5t-131.5 -83.5q-6 -12 -6 -23q0 -25 32 -39q70 -33 119 -38q14 -2 12 -15q-8 -8 -77.5 -8t-145.5 33q-47 20 -47 55q0 60 98 113q164 88 465 88q129 0 205 -56q51 -37 51 -99t-84 -135t-182 -105q92 -8 150 -54q72 -57 71 -159 q0 -131 -131 -259q-160 -156 -508 -231q-111 -23 -196.5 -22.5t-151.5 10.5q-164 27 -182 147q-2 12 -2 25z" />
<glyph unicode="4" horiz-adv-x="872" d="M0 295q0 18 27.5 46t101.5 82t188.5 144t204.5 158q334 246 443 246q27 0 40 -10.5t13 -16.5q0 -8 -21 -8q-84 0 -191.5 -152.5t-201.5 -365.5q143 -10 218 -50t75 -100q0 -14 -4 -29.5t-13.5 -13.5t-6 10.5t3.5 14.5q0 33 -77 57.5t-233 24.5q-74 -186 -73.5 -261 t61.5 -104q16 -16 -47 -16q-121 0 -160 92q-16 35 -16 99.5t53 181.5q-121 -12 -207 -36t-127 -24t-47 21q-4 4 -4 10zM158 383q102 27 272 37q23 43 93.5 159.5t97.5 151.5q-68 -45 -463 -348z" />
<glyph unicode="5" horiz-adv-x="1253" d="M6 66q0 121 230 215q117 45 329 45q137 0 135 -33q-2 -8 -16 -7t-41 1t-177.5 -33t-262.5 -80q-156 -66 -156 -125q0 -12 8 -24q39 -72 231.5 -72t334.5 74q252 129 251 254q0 66 -75 129q-47 39 -149.5 63.5t-225.5 24.5h-21l-41 -45q-23 -25 -53 -13q-29 16 2 47 q180 156 299 285q-31 27 -39 57q-18 61 9 78q10 12 41.5 8t56.5 -14q74 -29 135 -44t148.5 -15t187.5 18q188 37 188 109q0 14 6 16q6 -6 9 -14q-2 -80 -75 -141.5t-169 -86.5q-166 -43 -242 -43q-135 0 -219 48q-31 -33 -95 -97.5t-93 -95.5q119 23 200 23q215 0 312 -76 q74 -63 73 -146q0 -47 -26 -100q-111 -227 -518 -315q-109 -23 -188 -23t-130 4q-156 18 -172 121q-2 10 -2 23z" />
<glyph unicode="6" horiz-adv-x="993" d="M47 192.5q0 90.5 49 213.5q100 246 344 436t518 237q12 2 32 2t20 -16q0 -12 -29 -18q-188 -43 -435 -279.5t-341 -488.5q-37 -106 -37 -166t39 -72q18 -8 39 -8q61 0 152 54t149 114q227 233 227 336q0 33 -33 32q-12 0 -32 -6q-106 -33 -277 -180q-66 -57 -94 -96 q-31 -37 -42 -21.5t23 53.5q135 154 280.5 235t234.5 81q47 0 89 -27.5t42 -79.5q0 -156 -199 -344q-133 -127 -324 -184q-96 -29 -168 -29q-117 0 -172 65.5t-55 156z" />
<glyph unicode="7" horiz-adv-x="741" d="M59 622.5q0 4.5 9 12.5q35 31 62.5 95.5t27.5 131t30 66.5q23 0 37 -27q2 -4 2 -6l-8 -49q78 -18 127 -18.5t106.5 3t213 20.5t195.5 17t50 -22h-6q-84 0 -219 -154q-102 -111 -246 -299q-197 -258 -196 -364q0 -49 39 -70q6 -4 0 -8q-8 -8 -43 -8q-76 0 -106 43t-30 77 q0 94 138 248q96 111 247.5 255.5t163.5 158.5q-43 -25 -203.5 -25t-246.5 86q-12 -33 -47 -88q-76 -115 -95 -82q-2 2 -2 6.5z" />
<glyph unicode="8" horiz-adv-x="933" d="M6 115q0 82 105 164q88 68 184 120l151 82q-182 63 -182 148q0 94 101 178q193 160 473 160q143 0 221 -68q63 72 65 133q0 27 18.5 27t18.5 -31q-6 -76 -78 -170q4 -14 4 -35.5t-8 -42t-14 -26.5q-14 -10 -14 16q0 31 -4 43q-127 -143 -435 -352q100 -33 155.5 -87.5 t55.5 -113.5q0 -88 -91 -158.5t-196.5 -101.5t-185.5 -31h-10q-137 0 -229 31q-104 37 -105 115zM219 92q0 -84 143 -84q184 0 310 96q86 68 86 140q0 113 -183 190l-161 -110q-195 -142 -195 -232zM455 597q0 -46 49 -85q360 199 512 342q-47 29 -116 29t-161 -33 q-168 -59 -243 -156q-41 -51 -41 -97z" />
<glyph unicode="9" horiz-adv-x="903" d="M29 377q0 166 164 340q123 131 305 184q82 25 159.5 25t145.5 -37q117 -72 117 -187q0 -141 -150 -317q-31 -39 -68.5 -85t-86 -104.5t-93.5 -119t-88 -123t-72.5 -118.5t-44 -97t-14.5 -60.5t5 -43t36 -40.5q10 -4 1 -9t-11 -5q-125 16 -125 127q0 184 194 449 q141 195 310 387q16 20 8 22q-213 -213 -331 -284.5t-186.5 -71.5t-111.5 33q-63 47 -63 135zM190 326q0 -57 50 -58q29 0 71 19q115 49 293 227q84 84 99.5 103.5t33.5 41.5q25 33 47.5 78t22.5 68q0 47 -66 47q-76 0 -191.5 -69.5t-182.5 -149.5q-177 -207 -177 -307z" />
<glyph unicode=":" horiz-adv-x="522" d="M94 37q0 61 35 98q49 51 102 51q23 0 42.5 -15t19.5 -55t-41 -85t-94 -45q-23 0 -43.5 16t-20.5 35zM281 399q0 39 42 84t101 45q18 0 36.5 -15.5t18.5 -33.5q0 -59 -41 -105t-100 -46q-16 0 -36.5 16t-20.5 55z" />
<glyph unicode=";" horiz-adv-x="522" d="M8 -213q4 4 8 6q88 8 162 85t86 167q-59 -59 -114 -59q-25 0 -40.5 15t-15.5 32q0 57 47 100q51 51 103.5 51t70 -28.5t17.5 -60.5t-29 -99.5t-111.5 -139t-171.5 -77.5q-12 0 -12 8z" />
<glyph unicode="&#x3c;" horiz-adv-x="606" d="M63 371q0 10 80 55q135 82 255 177t149 159q10 25 37.5 24.5t27.5 -5.5t-2 -7q-63 -137 -372 -328q53 -23 104 -84t72 -141q4 -18 4 -37q0 -57 -43 -106t-49 -49q-12 0 4 26q14 31 14 62q0 102 -100 190q-68 59 -124.5 59.5t-56.5 4.5z" />
<glyph unicode="=" d="M104 145.5q0 26.5 9.5 54t23.5 29.5q125 12 251 12.5t253 -14.5q25 -4 25 -21.5t-23 -17.5q-152 -4 -307 -32q-201 -37 -216.5 -37t-15.5 26.5zM179.5 376.5q-1.5 26.5 8 55.5t23.5 31q127 12 253 12t249 -14q25 -4 24.5 -21.5t-20.5 -17.5q-152 -4 -308.5 -33 t-213.5 -37q-14 -2 -15.5 24.5z" />
<glyph unicode="&#x3e;" horiz-adv-x="602" d="M39 27q68 135 375 325q-51 23 -103.5 84.5t-72.5 141.5q-4 20 -5 38q0 59 43 107.5t50 48.5q12 0 -4 -27q-14 -31 -15 -61q1 -102 101 -190q68 -59 123 -59.5t55 -4.5q0 -10 -17.5 -21.5t-103.5 -63.5t-209 -148.5t-152 -157.5q-10 -23 -49 -25q-18 2 -16 13z" />
<glyph unicode="?" horiz-adv-x="1144" d="M53.5 816q-0.5 22 11 56.5t74 98t161.5 123t198 98.5q297 117 458 117q173 0 226 -125q18 -53 18 -88q0 -102 -67.5 -178t-140 -128.5t-163 -105.5t-167.5 -96q-268 -150 -269 -221q0 -16 9.5 -25.5t7.5 -20t-11.5 -13.5t-19.5 3q-25 23 -25 51q0 84 201 222 q154 111 375 278q147 137 147 225q0 45 -41 78q-63 49 -192 49q-176 0 -313.5 -56t-224.5 -107.5t-142 -100.5q-102 -96 -45 -129q12 -6 35 -6q86 0 228 64.5t248.5 134t139.5 125.5q0 2 3 8t10.5 -3t7.5 -27.5t-27 -55.5q-135 -199 -305 -273q-154 -70 -266 -69 q-94 0 -127 55q-12 20 -12.5 42zM143 57q0 39 42 84t102 45q18 0 36.5 -15.5t18.5 -33.5q0 -59 -41 -105t-100 -46q-16 0 -37 16t-21 55z" />
<glyph unicode="@" horiz-adv-x="1241" d="M0 477q0 182 127 338q78 96 190 158q174 94 380 94t323 -94q76 -61 76 -154q0 -55 -32 -133t-133.5 -175t-150.5 -121.5t-86 -24.5t-73.5 30.5t-36.5 89.5q0 18 10 62q-49 -86 -115 -133q-72 -49 -123 -49q-90 0 -127 98q-10 25 -10 51q0 88 57 172q59 84 166 119 q47 14 96.5 14t101.5 -25.5t77 -64.5q33 0 57.5 -17.5t24 -34t-10.5 -32.5q-53 -88 -68 -125t-15 -70.5t27.5 -33.5t76.5 28q88 57 152.5 142.5t64.5 158.5q0 123 -137 197q-117 61 -271 62q-158 0 -283.5 -73t-195 -176.5t-69.5 -203.5t53 -188.5t151.5 -126t167.5 -37.5 q369 0 598 274q152 184 152 354q0 102 -70 134q-16 6 -7 13t18 3q92 -41 92 -162q0 -35 -6 -74q-35 -199 -207 -385q-254 -272 -578 -272q-109 0 -207 37t-153 115q-74 102 -74 241zM354 464q0 -58 37 -58t85 41.5t68.5 70.5t34 45.5t23.5 29.5t25 34q43 66 43 100 q0 20 -19.5 31.5t-47.5 11.5t-62 -18q-66 -33 -111 -105q-76 -125 -76 -183z" />
<glyph unicode="A" horiz-adv-x="2109" d="M-55 170q0 39 14 80q61 168 340 285q336 139 809 139q233 0 467 -74q55 57 163.5 171t172.5 179q184 190 301 281q196 153 358 153h2q74 0 135.5 -23.5t73.5 -36.5t12 -15t-4 -7.5t-12 5.5q-38 36 -145 36h-6q-190 0 -402 -165q-152 -123 -252 -224.5t-209.5 -215 t-148.5 -152.5q205 -76 223 -199q2 -12 -1 -16t-8 0t-7 12q-16 39 -115 61q-88 20 -203 31q-416 -401 -735 -510q-174 -61 -330 -61q-279 0 -386 83t-107 183zM106 86q0 -53 58 -96q68 -51 234.5 -51t361.5 55q291 90 692 485q-64 4 -127 4q-272 0 -573 -57 q-463 -82 -602 -244q-43 -51 -44 -96zM1812 170q0 100 40 214t142.5 273.5t199 276.5t185.5 218t93 110q11 16 19 16q10 0 14 -25q2 -14 2 -32.5t-10 -32.5q-127 -156 -246 -352q-199 -332 -285 -605q-33 -109 -33 -225t70 -188q4 -2 4 -8q-3 -9 -9 -9q-3 0 -7 2 q-178 125 -179 367z" />
<glyph unicode="B" horiz-adv-x="1316" d="M39 147q0 68 158.5 313t304 434t170.5 189q12 0 20 -11t6 -23q-256 -322 -307 -387q750 125 912 358q25 38 25 72q0 35 -34 67q-66 59 -245 59q-1 0 -2 1q-179 0 -469 -83q-292 -83 -406 -182q-35 -27 -24.5 -44t4 -19t-16.5 6q-43 25 -55 62.5t-12 55t10 27.5 q88 127 408.5 226.5t490.5 99.5q340 0 428 -117q35 -45 35 -96q0 -80 -90 -166q-209 -194 -600 -284q76 8 159.5 8t189 -22.5t163.5 -84.5q63 -66 63 -148.5t-45 -164.5t-137 -166q-270 -246 -688 -246q-113 0 -200 23.5t-113.5 41t-64.5 48.5t-18 31q10 0 61.5 -18.5 t190 -18.5t296 31.5t270 95t178.5 143.5q80 96 80 195q0 53 -29 108t-115 85t-153.5 30t-154.5 -8.5t-222 -55.5t-180 -112.5t-78 -121.5t-66 -119.5t-51 -96.5q-12 -29 -29.5 -29t-17.5 14z" />
<glyph unicode="C" horiz-adv-x="1472" d="M49 328q0 274 297 542q223 201 536.5 346.5t583.5 145.5q166 0 258 -80q53 -49 54 -121q0 -100 -101.5 -201.5t-244 -173t-284.5 -120t-198.5 -53.5t-86 -5t-60.5 2q-106 10 -107 45q1 11 13 11l51 -9q98 0 291.5 87t355.5 216.5t162 227.5q0 63 -62.5 87.5t-136.5 24.5 q-240 0 -516 -137t-477 -323q-270 -252 -271 -480q0 -98 49.5 -171.5t131.5 -114.5q154 -76 344 -76q86 0 211 18q217 39 371.5 102.5t310.5 190.5q8 4 10 4q10 0 10 -9t-8 -21q-154 -166 -428 -271.5t-514 -105.5q-307 0 -461 180q-84 100 -84 242z" />
<glyph unicode="D" horiz-adv-x="1726" d="M-12 88q0 16 32 -8q123 -86 402.5 -86t571.5 83t503 242q158 119 240 240q86 126 86 225q0 100 -56 183q-115 166 -436 213q-92 14 -180 14q-326 0 -639 -117q-238 -88 -360 -205q-80 -72 -80 -135q0 -39 20.5 -65.5t10 -32.5t-20.5 4q-51 59 -51 150q0 147 116 241 q160 127 446 212t537.5 85t413.5 -69q319 -135 320 -465q0 -268 -236 -514q-279 -289 -801 -377q-158 -27 -286 -27q-449 0 -543 184q-10 20 -10 25zM289 174q0 111 299 531.5t338 420.5h26q14 0 15 -6q0 -14 -17 -30q-174 -193 -373.5 -483t-254.5 -437q-6 -16 -15 -16 q-18 0 -18 20z" />
<glyph unicode="E" horiz-adv-x="1708" d="M33 299q0 139 71 270q174 328 605 580q254 150 456 199q126 25 241 25q2 -1 5 -1q117 0 203 -53q90 -59 90 -168q0 -70 -41 -154q-12 -25 -16.5 -12.5t7 38t11.5 58.5q0 94 -170 95q-211 0 -573.5 -151t-567.5 -339q-125 -117 -192.5 -226.5t-67.5 -191.5t45 -145 q78 -119 350 -141q31 -2 96.5 -2t182.5 22q303 55 594 211t428 354q27 39 27 21q0 -8 -5 -25q-55 -156 -374 -364q-469 -307 -906 -308q-254 0 -401 150q-98 96 -98 258zM354 612q0 23 39 53.5t148 51.5q68 16 153.5 16t186.5 -12q212 -26 280 -100q13 -15 13 -26 q0 -8 -3 -13q-12 -16 -43 4q-70 51 -223 51q-190 0 -377 -51q-80 -23 -110 -23q-47 0 -62 43q-2 2 -2 6z" />
<glyph unicode="F" horiz-adv-x="1361" d="M-6 858.5q0 65.5 38 130t124 111.5q197 113 471 182q295 76 551 76q270 0 348 -101q51 -63 51 -125.5t-25 -123.5q-45 -125 -145 -246l-76 -90q31 -16 55 -41q20 -25 10 -40.5t-36.5 2t-67.5 32.5q-283 -338 -319.5 -388.5t-59 -80t-29.5 -40t-25.5 -37t-26 -43 t-17.5 -40.5q-16 -39 -16 -97.5t49 -58.5q14 0 32.5 5t18.5 -5t-23.5 -17t-51 -7t-55.5 24.5t-28 75.5t37 118.5t113 171t187.5 244t148.5 189.5q-51 6 -146.5 6t-261.5 -35q-25 -4 -64.5 -15t-58.5 -15q-36 -8 -57 -8q-24 0 -31 10q-29 16 -28.5 38.5t39 54.5t124.5 48 t179 16q207 0 348 -43q149 208 149 326q0 86 -80 133q-59 35 -157 35q-180 0 -377 -43q-371 -80 -598 -184q-168 -76 -168 -142q0 -35 45 -65q12 -10 -4.5 -10.5t-24.5 6.5q-61 41 -61 106.5z" />
<glyph unicode="G" horiz-adv-x="1867" d="M14 283q0 139 72 270q174 328 602 577q254 150 459 199q129 27 246.5 27t201.5 -56q90 -59 91 -167q0 -70 -41 -154q-12 -25 -16.5 -11.5t7 39t11.5 56.5q0 96 -170 96q-211 0 -574.5 -151.5t-566.5 -339.5q-125 -117 -192.5 -226.5t-67.5 -190.5t45 -147 q78 -119 350 -141q31 -2 96.5 -2t182.5 23q276 49 546.5 185t423.5 314q12 41 19.5 79t-29.5 34q-31 -4 -65.5 -32.5t-41 -9.5t20.5 40q70 49 128 49t85 -31.5t27 -79.5q0 -104 -119 -311q-174 -297 -304 -435t-281.5 -216t-310.5 -78t-266.5 71.5t-129.5 225.5q-2 16 7 15 t13 -13q20 -117 111.5 -190.5t208.5 -73.5q203 0 448 254q305 317 440 608q-150 -152 -403 -293q-403 -223 -764 -223q-252 0 -403 150q-96 96 -97 260z" />
<glyph unicode="H" horiz-adv-x="1662" d="M53 211q0 88 84 172q123 123 420 176q178 31 334 31h18q360 561 396 561l18 2q18 0 18 -10q0 -14 -22 -45q-166 -221 -354 -510q96 -6 190 -25q307 -63 307 -196q0 -8 -4 -8.5t-8 10.5q-20 51 -225 69q-61 6 -149.5 6t-211.5 -12q-303 -481 -403 -719q-10 -23 -19 -23 q-10 0 -10 21q0 102 375 717q-119 -16 -174 -27q-360 -63 -475 -196q-35 -43 -35 -80t41 -70q12 -8 -4 -8l-19 6q-88 68 -88 158zM1296 -33q0 84 222.5 459t403.5 645t204 270l16 2q20 0 21 -10q0 -14 -23 -45q-217 -285 -468 -692.5t-347 -634.5q-10 -23 -19 -23q-4 0 -8 7 q-2 6 -2 22z" />
<glyph unicode="I" horiz-adv-x="1218" d="M14 -89q0 23 10 49q10 28 37 60q61 76 246 123q100 27 194.5 27t147.5 -4q186 315 408.5 650t247.5 335l18 2q18 0 18 -10q0 -14 -22 -45q-303 -399 -621 -936q133 -14 234.5 -48t163 -100.5t61.5 -150.5q0 -55 -16 -53q-10 0 -7 14t3 20q0 47 -72 86q-129 70 -377 70 q-41 0 -84 -2q-104 -186 -143 -285q-10 -23 -19 -23q-10 0 -10 23q0 53 121 283q-139 -12 -283 -70q-59 -23 -96 -38t-84 -24t-59 9q-17 13 -17 38zM168 922q0 125 125 194q158 92 393.5 146.5t443.5 54.5q139 0 279 -51q74 -29 110.5 -80t36.5 -109q0 -47 -11 -46t-8 13.5 t3 22.5q0 63 -98.5 88t-240.5 25t-372 -41q-391 -72 -548 -189q-68 -49 -68 -96t66 -92q15 -8 -1 -9h-4q-13 0 -22 7q-51 35 -74 98q-10 29 -10 64z" />
<glyph unicode="J" horiz-adv-x="1382" d="M-356 -438q0 145 100 303q193 297 563 510q35 268 245 538.5t468 401.5q117 59 227.5 59t192.5 -59q104 -78 104 -217.5t-110.5 -366.5t-305 -478t-446.5 -480q-471 -430 -797 -430q-164 0 -225 133q-16 41 -16 86zM-215 -463q0 -76 92 -106q35 -10 68 -11q104 0 205 43 q262 109 571 421.5t500.5 641t191.5 518.5q0 158 -100 209q-39 20 -103 21h-2q-63 0 -155 -29q-274 -94 -450.5 -317t-213.5 -510q209 102 391 102q172 0 195 -94q6 -23 4 -27t-12 0q-16 8 -56 9q-178 0 -516 -218q25 -59 72 -63q14 -2 14 -12.5t-20 -10.5q-76 0 -119 52 q-481 -328 -549 -557q-8 -33 -8 -62z" />
<glyph unicode="K" horiz-adv-x="1366" d="M-59 -170q0 106 327.5 706.5t433.5 686.5q23 18 54 18q67 0 67 -36q0 -19 -22 -48q-203 -266 -475.5 -694t-358.5 -629q-10 -25 -18 -24.5t-8 20.5zM375 502q0 8 22 28q203 186 681 496.5t675 331.5h10q23 0 23 -15q0 -25 -33 -36q-492 -170 -1257 -756q198 66 351 66 q1 -1 3 -1q154 0 272 -53q211 -90 211 -284q0 -150 -157 -293q-96 -88 -242 -158q-45 -23 -55.5 -23t-8.5 5q4 18 85 89.5t129.5 166t48.5 177.5t-41 158q-78 143 -322 160h-31q-104 0 -211.5 -33.5t-130 -33.5t-22.5 8z" />
<glyph unicode="L" horiz-adv-x="1507" d="M6 -47q0 100 178 174q195 78 514 78q489 0 695 -131q106 -70 106 -172q0 -55 -18 -56q-16 0 -11 14.5t5 22.5q0 53 -111 92q-176 63 -473 64q-315 0 -551 -72q-78 -25 -127 -41q-83 -26 -128 -26h-3q-76 0 -76 53zM127 195q2 2 9 -2.5t30.5 -5.5t58.5 6q84 10 181 102 q55 55 235 311q-172 35 -203 131q-4 14 2 15.5t11 -9.5q24 -36 144 -36h7q47 0 107 4h6q125 174 255 308t271 214q231 129 455 129q106 0 168 -33q114 -60 114 -164q0 -182 -278 -346q-106 -63 -244 -112q-322 -117 -602 -117q-109 0 -168 10q-12 -16 -47 -70.5t-48 -74 l-41 -61.5t-44 -62q-49 -61 -94 -107q-71 -69 -188 -69h-3q-25 0 -55.5 9t-35.5 19q-4 7 -4 9q0 1 1 2zM766 717q264 33 577 147q373 135 465 291q23 39 23 80q0 92 -213 92q-37 0 -140.5 -26.5t-203.5 -77.5q-244 -129 -508 -506z" />
<glyph unicode="M" horiz-adv-x="2711" d="M-6 858.5q0 65.5 38 130t124 111.5q197 113 471 182q295 76 551 76q270 0 348 -101q51 -63 51 -125.5t-25 -123.5q-45 -125 -145 -246q-20 -27 -138 -165t-184 -220q739 778 1041 778q86 0 123 -74q20 -41 20 -71.5t-4 -69.5q-6 -102 -172 -383q250 260 447 406 q238 176 405 176q96 0 96 -81t-102 -233q-604 -887 -604 -1179q0 -92 53 -101q6 -1 12 -1q28 0 58 22q14 10 24 -3.5t-8 -30.5t-43 -17t-57.5 4t-86 25.5t-89 71.5t-35.5 112q0 88 22 157q55 162 518 807q139 195 140 279q0 63 -66 63q-88 0 -207 -90q-254 -193 -567 -536 q-86 -139 -213 -326q-18 -27 -43 -27q-82 0 -82 37q0 8 4 17q340 590 381 755q12 57 12 89t-2 51q-14 59 -73.5 59t-161.5 -68q-176 -113 -436.5 -362.5t-499.5 -517.5q-6 -6 -15 -6q-118 -150 -147 -150q-8 0 -8 16q0 29 115 172q16 20 132.5 162t161.5 199 q168 217 224.5 329.5t56.5 186.5q0 168 -279 168q-295 0 -765 -160q-330 -113 -330 -209q0 -35 47 -67q14 -8 -1 -9.5t-26 5.5q-61 41 -61 106.5z" />
<glyph unicode="N" horiz-adv-x="1198" d="M-156 -289q0 119 360.5 693.5t483.5 719.5q53 168 121 219q14 11 44 11h1q30 0 96 -27t66 -63q0 -16 -17 -29q-92 -78 -143 -293t-51 -438q0 -266 61 -416q84 217 384 722t335 505q2 0 19 2q19 2 33 2q30 0 30 -12q0 -8 -14 -33q-209 -272 -434.5 -635t-331.5 -596 q41 -68 96 -94q25 -12 47.5 -12t34.5 7t16 4t4 -9.5t-4 -10.5q-46 -34 -84 -34h-2q-123 0 -209 117.5t-129 293.5t-43 334q0 176 39 352q-219 -297 -456.5 -685t-325.5 -593q-10 -23 -18 -23q-9 0 -9 21z" />
<glyph unicode="O" horiz-adv-x="1435" d="M279 293q0 205 149 446q111 176 271.5 314.5t289.5 181.5q84 25 160 25t131 -52q61 -55 61 -164q0 -63 -22 -131q-6 -25 -14 -8q-4 8 2 32t6 50q0 90 -107 90q-154 0 -382 -147.5t-343 -304.5q-158 -217 -157 -392q0 -190 213 -225q31 -6 63 -6q113 0 272 57 q287 102 467 324q236 293 236 655q0 135 -29.5 200t-56.5 78t-47.5 7t-18.5 4q1 20 51 20q1 0 2 1q49 0 97 -41q82 -66 82 -253.5t-83 -362.5t-226 -357q-180 -227 -422 -359q-125 -67 -258 -67h-4q-182 0 -291 129q-92 109 -92 256z" />
<glyph unicode="P" horiz-adv-x="1103" d="M-33 -49q0 76 221 418q-82 20 -135 61q-61 49 -61 102.5t27.5 79t27.5 9.5q0 -8 -12 -24.5t-12 -35.5q0 -66 53 -107.5t133 -54.5q160 238 321.5 448t188.5 210q12 0 21.5 -14.5t9.5 -28.5q-258 -319 -469 -625q20 -2 43 -2q182 0 433 83t379 170t189 176t61 165 t-48 135.5t-133 81t-148 21.5q-221 0 -503 -90.5t-382 -174.5q-35 -27 -24.5 -44t4 -19t-16.5 6q-43 25 -55 62.5t-12 55t10 27.5q76 109 353.5 201t551.5 119q47 4 117.5 4t166 -26.5t150.5 -90.5q70 -78 70 -190q0 -154 -135 -307q-78 -88 -189 -154q-172 -98 -412.5 -172 t-410.5 -74q-43 0 -84 4q-182 -262 -231 -391q-12 -33 -34 -33h-1q-23 0 -23 19z" />
<glyph unicode="Q" horiz-adv-x="1302" d="M-135 -381q0 90 151 162q70 33 166 57q-127 45 -127 232v22q18 338 281.5 691.5t595.5 521.5q133 67 260 67h4q125 0 229 -74q117 -84 117 -278q0 -209 -199 -479q-133 -182 -328.5 -342t-312 -196t-198.5 -36t-134.5 52.5t-52.5 142.5q0 82 43 180q8 18 15.5 12 t-5 -38.5t-12.5 -67.5q0 -78 103 -78q166 0 436 161t403 322q205 246 205 422q0 162 -194 195q-27 6 -60 6q-113 0 -278 -57q-365 -121 -584 -429.5t-237 -691.5v-39q0 -96 28.5 -148t75.5 -56l16 2q138 27 278 27h6q142 -1 278 -15q348 -33 469 -152q51 -53 51 -120 q0 -25 -6.5 -49.5t-18.5 -24.5q-12 2 -8 15.5t4 23.5q0 55 -117 94q-172 57 -446 57q-250 0 -434 -39q-68 -14 -187 -51q-162 -49 -204 -49q-72 0 -72 45z" />
<glyph unicode="R" horiz-adv-x="1202" d="M-31 -76q0 98 295 529q-10 37 -10 67.5t51 71.5t78 41h6q121 166 215 280.5t110.5 114.5t26 -13.5t9.5 -27.5q-164 -203 -336 -438l4 -14l74 6q156 10 338 70.5t298 138.5q242 164 242 301q0 59 -80 100t-250 41t-461.5 -83t-406.5 -181q-33 -29 -23.5 -45.5t3 -18.5 t-18.5 6q-43 25 -54 62t-11 55.5t10 26.5q68 98 302 185t433 114.5t294 27.5t157.5 -12t111.5 -55q76 -63 76 -178q0 -113 -84 -209t-216 -173t-321 -139q-216 -71 -398 -71h-5q66 -164 263.5 -331t326.5 -167q51 0 90 24.5t45 61.5q0 10 10 6q4 -6 4 -10 q-16 -137 -233 -137q-125 0 -260 65.5t-230.5 164t-150.5 202.5q-217 -315 -268 -444q-12 -33 -34 -33t-22 18z" />
<glyph unicode="S" horiz-adv-x="1208" d="M-16 193q76 -68 209 -96.5t253 -28.5q180 2 267.5 28.5t152 62.5t118.5 84t54 106.5t-77 105.5q-6 4 -124 51t-180.5 104.5t-62.5 130.5q0 139 172 283.5t376 224.5t347 80q100 0 155.5 -36t55.5 -99v-18q-6 -63 -223 -265q-80 -74 -140.5 -165t-60.5 -160v-13 q-63 49 -64 132q0 74 64 180q92 156 293 295q-16 27 -56 27l-1 -1q-42 0 -77.5 -10t-84.5 -29q-80 -33 -129 -61q-184 -98 -344 -230.5t-168 -197.5v-6q0 -47 55 -78q51 -31 118.5 -58.5t98.5 -41.5q164 -82 164 -218q0 -59 -35 -114q-55 -86 -167 -142.5t-238 -78.5 q-131 -23 -218 -23q-156 0 -311.5 66.5t-191.5 208.5z" />
<glyph unicode="T" horiz-adv-x="886" d="M-35 943q0 46 19.5 88t70.5 87t123 74q219 86 510 123q170 20 299 20q371 0 615 -94q160 -63 200 -135q23 -37 23 -74t-23 -76q-27 -37 -57.5 -43t-28.5 11q4 18 24.5 50.5t20.5 63.5q0 96 -225 133q-131 21 -300 21h-8q-166 0 -364 -21q-504 -51 -737 -147 q-126 -50 -126 -107q0 -27 28 -55q10 -10 -4.5 -10t-24.5 10q-35 35 -35 81zM408 29q0 106 47 241.5t139 275.5t401 574q25 33 38.5 33t19.5 -6t6 -12.5t-2 -10.5q-437 -649 -500 -1020q-14 -92 -14 -127q0 -115 71 -133q10 -4 23 -4l55 23q16 14 16.5 4t-12.5 -19 q-32 -28 -82 -28h-4h-20q-182 14 -182 209z" />
<glyph unicode="U" horiz-adv-x="1380" d="M8 1145q0 31 15.5 54.5t27.5 33.5q96 78 340 119q120 23 245 23q3 -1 5 -1q127 0 222 -53t95 -158q0 -25 -6 -53q-20 -100 -214.5 -455.5t-233.5 -474.5q-23 -66 -23 -114t21.5 -78.5t66.5 -30.5q141 0 369 252q135 154 229.5 294t219 336.5t172.5 265.5t122 69 q43 0 43 -19q0 -6 -6 -12q-188 -182 -481 -750q-180 -346 -180 -497q0 -96 73 -115q8 -2 26 -2t33 14t18 7t-9 -15q-47 -41 -96 -41q-176 0 -176 156q0 137 139 399q-209 -272 -385 -358q-59 -29 -113.5 -29t-99.5 43q-70 59 -70 154q0 121 97.5 331.5t185.5 386.5 q113 227 113 328q0 127 -150 127q-174 0 -432 -139q-78 -41 -108.5 -65.5t-45.5 -24.5q-23 0 -36 30.5t-13 61.5z" />
<glyph unicode="V" horiz-adv-x="991" d="M20 690q0 233 63.5 354t158.5 195q133 106 247 107q66 0 127 -39q156 -100 156 -465q0 -291 -115 -713q797 1208 1223 1208q66 0 90 -34q4 -6 4 -11.5t-9 -7.5t-19.5 0t-16.5 2q-119 0 -295 -125t-351 -317.5t-345 -411.5q-330 -422 -440 -627q-8 -14 -15.5 -14t-16.5 5 t-1 22q94 158 102 170q-125 -57 -172 -58q-6 0 -8 4q193 711 193 1037q0 88 -20.5 169t-61.5 113.5t-84 32.5q-70 0 -141.5 -83t-140.5 -237.5t-69 -326.5q0 -27 2.5 -53.5t-10.5 -26.5q-4 2 -8 12q-27 51 -27 119z" />
<glyph unicode="W" horiz-adv-x="1667" d="M16 601q0 54 29 178q29 126 90.5 217t147.5 157q158 123 331 123q94 0 150 -66q59 -70 59 -200q0 -188 -90 -461q90 133 210 258t257.5 226.5t229.5 101.5q119 0 119 -218l-1 -1q0 -220 -143 -625q502 791 833 991q131 78 244 78q59 0 84 -35q2 -4 2 -6q0 -10 -18.5 -10 h-26.5q-94 0 -227 -88t-262 -222.5t-281 -326.5q-236 -301 -450 -627q-12 -25 -121 -60.5t-118 -35.5t-9 2t34.5 80t62.5 146.5t67 170.5q88 229 122.5 374.5t34.5 197.5q0 88 -57 88q-117 0 -377 -293q-164 -182 -303 -396q-90 -215 -188 -376q-14 -23 -128 -60t-125.5 -37 t-9.5 4q244 481 318 677t106.5 307.5t32.5 200.5t-40 140.5t-89 51.5t-106 -35q-119 -68 -235 -266.5t-128 -395.5q-2 -25 -8 -26q-8 -2 -12 10q-11 33 -11 87z" />
<glyph unicode="X" horiz-adv-x="1024" d="M-293 -198.5q0 10.5 17 32.5q241 325 544 651q-76 202 -76 388q0 189 44 255q23 43 118 68q35 10 58.5 10t23.5 -18q0 -10 -8 -25q-53 -82 -53 -240.5t28 -295.5q731 733 1211 733q23 0 23 -8q0 -9 -7 -9h-10q-246 0 -733 -391q-225 -178 -465 -407q51 -197 133 -354.5 t162 -200.5q43 -25 71 -25q90 0 125 41q4 4 9.5 4t7.5 -5t-2 -11q-45 -57 -164 -57t-248 137t-221 346q-383 -377 -547 -602q-18 -27 -29.5 -27t-11.5 10.5z" />
<glyph unicode="Y" horiz-adv-x="1867" d="M18 967q0 115 125 188q150 86 363 139q229 59 416 60q291 0 307 -156v-42t-10.5 -70t-43 -115.5t-63.5 -127t-153.5 -262t-186 -336.5t-63.5 -193.5t51 -63.5q57 0 176 101t219 218t143 180q332 481 410 742q14 47 31 51q18 16 28 -12q41 -113 41 -279t-55 -395 q-178 -748 -659 -1090q-201 -145 -411 -145t-353.5 132t-175.5 413q-2 20 4 27.5t14 0t10 -23.5q29 -213 149 -348t275 -135q174 0 350 169q111 106 183 207q88 121 180 260q416 633 416 1074v41q-49 -166 -166 -375q-166 -293 -371 -514q-319 -344 -473 -344q-78 0 -78 82 q0 55 39 156.5t84 187.5q86 166 191.5 343t127 249.5t21.5 113.5q0 150 -219 150t-588 -123q-254 -88 -254 -162q0 -27 37 -53q10 -6 -2 -7t-21 5q-45 31 -45 82z" />
<glyph unicode="Z" horiz-adv-x="1521" d="M-18 57q0 25 32 49q74 49 133 76l7 4q295 295 682 580t669 375q-77 69 -324 69h-7q-395 0 -639 -110q-137 -61 -138 -133q0 -37 35 -76q8 -8 -3 -8t-21 8q-43 41 -43 91t36 110q141 221 598 251q59 3 155 3q2 0 5 -1q94 0 195 -18q229 -45 229 -176v-14q8 -8 8 -16.5 t-12 -16.5q-2 -20 -11 -45t-14.5 -28t-6.5 2t5.5 20.5t3.5 36.5l-6 -5q-352 -160 -696 -401.5t-606 -472.5q125 39 387 39q575 0 782 -141q84 -57 84 -134q0 -31 -11 -58.5t-22 -27.5q-14 0 -2.5 22t11.5 42q0 117 -404 117q-311 0 -829 -76q-98 -16 -133 -22.5t-43 -6.5 q-41 0 -72 47q-14 20 -14 45z" />
<glyph unicode="[" horiz-adv-x="817" d="M0 -88q0 39 87 217t245 432q199 322 381 516q31 33 91 77t101 49t113 5t217 -12q18 -2 18 -16q0 -25 -26 -27q-186 0 -301 -14q-78 -6 -170 -125q-190 -250 -354 -580t-164 -459q0 -27 6 -47q18 -20 80.5 -32.5t171.5 -14.5q14 -2 17 -12t-4.5 -20.5t-21.5 -10.5l-254 -6 q-74 0 -145.5 17.5t-85.5 54.5q-2 2 -2 8z" />
<glyph unicode="\" horiz-adv-x="1116" d="M39 1194.5q0 11.5 27 11.5l73 -10q23 0 221.5 -285.5t409.5 -627.5q264 -428 264 -512q0 -23 -11 -29t-15 -6q-14 0 -25 22q-88 207 -379 638t-553 771q-12 16 -12 27.5z" />
<glyph unicode="]" horiz-adv-x="817" d="M-102 -137q0 25 26 26q160 0 301 15q78 10 170 127q188 246 353 578.5t165 463.5q0 25 -6 43q-18 20 -81.5 31.5t-172.5 13.5q-20 4 -15.5 23.5t24.5 19.5l212 8q248 0 273 -71q2 -2 2 -8q0 -39 -87 -218.5t-243.5 -433.5t-314.5 -441t-268 -202q-35 -4 -107 -4t-213 12 q-18 2 -18 17z" />
<glyph unicode="^" horiz-adv-x="681" d="M4 685q0 7 8 21.5t17.5 13.5t11.5 -1q53 0 143 49t174 117q20 35 77 81t61 46q8 0 -8.5 -32t-16.5 -67q0 -106 59 -172q41 -43 86 -43q6 0 23.5 3.5t17.5 -10t-44 -25t-97 -11.5t-100 33q-76 51 -78 129q-80 -66 -166 -102.5t-143 -36.5q-25 0 -25 7z" />
<glyph unicode="_" horiz-adv-x="1138" d="M0 -154h1139v-102h-1139v102z" />
<glyph unicode="`" horiz-adv-x="626" d="M72 880.5q0 14.5 8 27t52 23.5t52.5 11t4 -8t-4.5 -19q0 -41 93.5 -112.5t185.5 -85.5q26 -4 26 -13.5t-18 -9.5q-111 0 -221.5 50.5t-144 86t-33.5 50z" />
<glyph unicode="a" horiz-adv-x="987" d="M-10 106q0 152 135 297q102 109 254 154q68 23 132 23t124.5 -36t77.5 -85q61 0 88 -45q4 -6 4 -20.5t-15.5 -33t-38 -45t-46 -57.5t-59.5 -84t-36 -90t32 -37t103 39q143 82 318 246q20 20 27 6v-8t-9 -15q-351 -331 -511 -331h-1q-47 0 -78.5 31.5t-31.5 74.5t37 131 q-92 -115 -197.5 -177t-165 -62t-101.5 35.5t-42 88.5zM186 35q29 0 95.5 37t175.5 145q6 6 47 45t69 68q97 100 97 144v1q0 43 -68 43q-43 0 -102 -26q-104 -45 -199 -156q-149 -175 -149 -257q0 -44 34 -44z" />
<glyph unicode="b" horiz-adv-x="819" d="M-111 18q133 186 207 304q-47 -47 -116 -105q-18 -14 -25.5 -5t14.5 30q61 51 86 73q80 78 193 254q313 485 313 602q0 41 -41 43q-4 0 -4 4.5t4 4.5q94 -4 109 -125v-19q0 -160 -267 -626q102 102 207 143q51 20 95.5 20t83.5 -20q55 -45 55 -121q0 -143 -144 -311 q-106 -125 -233 -184q-68 -31 -118 -31t-91 27.5t-41 85t17 112.5q-72 -109 -113 -154t-78 -45h-10q-53 0 -103 43zM203 80q0 -74 41 -96q22 -14 56 -14q1 0 2 -1q33 0 83 27q86 43 156 149q78 120 78 231q0 113 -99 113q-33 0 -82 -26q-88 -47 -155 -152q-80 -121 -80 -231 z" />
<glyph unicode="c" horiz-adv-x="700" d="M148 439q156 126 327 126q106 0 143 -49q23 -25 23 -52.5t-14.5 -57t-46 -29.5t-9 39.5t22.5 68.5q0 39 -41 39q-35 0 -107.5 -31.5t-162.5 -136.5q-109 -129 -109 -229q0 -76 57 -102q18 -8 43 -9q84 0 198 72t294 238q29 29 29 0q0 -12 -13 -23 q-250 -229 -367.5 -283.5t-185.5 -54.5q-238 0 -238 173q0 175 157 301z" />
<glyph unicode="d" horiz-adv-x="806" d="M-49 218q0 7 13 18.5t142 150.5q76 84 180.5 131t198.5 47q86 0 126 -29.5t40 -74.5q74 156 159 296t132 193q51 58 129 58h2q77 0 125 -43q-43 -27 -168 -176.5t-243.5 -320.5t-192.5 -374q-39 -106 -39 -173.5t29 -102.5q6 -8 2 -11.5t-6 -3.5t-7 2q-66 53 -66 157 q0 106 44 245q-84 -109 -166 -178q-98 -82 -201 -82q-66 0 -123 44t-57 144v9q0 46 19 104q-41 -37 -52.5 -45t-15.5 0t-4 15zM182 109q0 -72 47 -86q10 -4 21 -5q84 0 250 168q45 43 75 93q16 47 43 108q-18 -12 -29 -3t5 40.5t16 56.5q0 41 -51 41q-27 0 -70 -16 q-96 -37 -190 -144q-117 -133 -117 -253z" />
<glyph unicode="e" horiz-adv-x="700" d="M-8 139q0 174 155.5 300t325.5 126q115 0 154 -49q16 -25 16 -52.5t-18 -60.5q-37 -63 -138.5 -111t-191.5 -48q-35 0 -38 6t5 9t23 3q81 0 192 57q109 59 109 121t-74 62q-35 0 -74 -19q-86 -39 -166 -135q-98 -119 -98 -221q0 -39 21.5 -73t76.5 -34q96 0 244 101.5 t254 204.5q25 25 25 2q0 -14 -13 -25q-76 -70 -101.5 -93.5t-101 -83.5t-122.5 -85q-145 -76 -246.5 -76t-160 46t-58.5 128z" />
<glyph unicode="f" horiz-adv-x="514" d="M-6 -2.5q0 133.5 125 422.5q-10 -4 -15.5 0t-12.5 18.5t-11 36t1 43t30 43.5q29 25 96 39q152 281 293 377q94 63 194.5 63t171.5 -49q95 -65 95 -151q0 -8 -7.5 -8.5t-9.5 10.5q-12 47 -47 72.5t-60.5 26.5t-45.5 1q-74 0 -138 -41q-121 -78 -280 -295q113 -10 151 -41 q64 -48 64 -75q0 -5 -2 -9q-4 -10 -37 9.5t-100.5 19.5t-157.5 -25q-141 -207 -209 -424q-29 -94 -29 -155.5t27 -91.5q8 -8 2 -10.5t-8 -2.5t-4 2q-76 61 -76 194.5z" />
<glyph unicode="g" horiz-adv-x="841" d="M-604 -262q0 8 6 8q14 0 18 -16q18 -104 101 -181q37 -35 101.5 -57t107.5 -22h55q227 12 397 229q80 102 141.5 203.5t133 226.5t121.5 190q-63 -72 -159.5 -164t-166.5 -132.5t-129.5 -40.5t-101 35.5t-41.5 88.5q0 152 135 297q102 109 254 154q68 23 132 23 t124.5 -36t76.5 -85q33 0 72 -28t39 -40t-16 -20q-66 -33 -207 -287q-137 -244 -322 -436q-92 -96 -213.5 -152.5t-244.5 -56.5q-178 0 -296 77.5t-118 221.5zM127 82q0 -47 49 -47q39 0 96 43q139 92 291 268q70 80 70 125q0 16 -11.5 29.5t-48 13.5t-117.5 -43t-166 -130 t-124 -155.5t-39 -103.5z" />
<glyph unicode="h" horiz-adv-x="821" d="M-39 225q0 6 19 23q125 109 196 201q53 125 195.5 347t292.5 367q100 100 217 135q53 16 99 16q1 0 2 1q45 1 84 -25q40 -26 40 -96q0 -92 -61.5 -186.5t-217 -210t-288.5 -172.5q-25 -10 -29 3t20 23q119 53 267.5 168t199 196t50.5 131t-43 50q-49 0 -156 -82 q-158 -127 -331 -354.5t-298 -458.5q57 82 105 135q115 129 223 129q102 0 121 -90q2 -12 2 -34.5t-15.5 -66.5t-86 -162t-70.5 -142.5t16 -24.5q23 0 68 29q115 72 299 241q25 25 23.5 8.5t-13.5 -30.5q-152 -156 -313 -260q-76 -49 -138 -49q-16 0 -30 4q-80 16 -80 89 t57 163q10 14 76 96q100 123 100 164q0 27 -39 26q-70 0 -170 -98q-25 -25 -89 -102.5t-126 -178.5l-51 -112l6 20q-4 -8 -8 -24q-10 -25 -59 -41q-10 -4 -19 -4q-20 0 -4 30q8 20 57.5 146.5t79.5 202.5q-80 -88 -149 -144q-20 -16 -29 -4q-2 2 -2 8z" />
<glyph unicode="i" horiz-adv-x="557" d="M-47 213q0 14 32.5 41t142.5 135.5t149.5 129t65.5 20.5t38 -7.5t6 -15.5q-84 -86 -140.5 -218t-56.5 -185.5t42 -53.5t139.5 61.5t222.5 174.5q27 25 27 -6q0 -4 -5 -8q-98 -86 -165.5 -141.5t-160.5 -105.5t-153 -50q-74 0 -109.5 32.5t-35.5 71.5q0 74 26.5 117 t90.5 119q-23 -18 -71 -61.5t-66.5 -58t-18.5 8.5zM395 678q4 35 37 74t88 39q16 1 34 -15q15 -13 15 -40v-12q-4 -36 -33 -68q-28 -30 -64 -40q-12 -3 -23 -4q-21 0 -35 12q-19 16 -20 44q0 5 1 10z" />
<glyph unicode="j" horiz-adv-x="323" d="M-1096 -266q0 10 9.5 9t11.5 -13q20 -115 108 -186.5t216 -71.5t314.5 144t332.5 347q152 203 233 387q-35 -45 -109 -104q-4 -4 -10 0q-14 10 -4 24q143 115 160 213q0 33 -25 41q-10 6 -2 15q8 6 21 6q57 0 76 -72q4 -18 4 -43q0 -117 -121 -358.5t-230.5 -357 t-273.5 -197.5t-319.5 -82t-262.5 71q-129 88 -129 228zM223 678q4 35 37 74t88 39q16 0 32.5 -14.5t16.5 -31t-2 -37t-30.5 -52t-64.5 -40.5q-12 -4 -23 -4q-21 0 -35 12q-20 16 -20 44q0 5 1 10z" />
<glyph unicode="k" horiz-adv-x="681" d="M-45 209q2 18 28.5 41.5t120.5 138.5q205 455 537 760q172 160 311 160q115 0 133 -95q4 -14 5 -30q0 -174 -349 -410q-121 -82 -221 -125q-25 -10 -29 3.5t21 23.5q94 43 215 129t217 187.5t96 156.5q0 35 -38.5 35t-112.5 -45q-205 -125 -449 -439q-152 -195 -250 -356 q143 190 295 252q57 20 96.5 20t67.5 -12q55 -25 56 -82q0 -102 -121 -192q-70 -49 -159 -70.5t-134 -21.5t-76 12q66 -84 171.5 -145.5t170.5 -61.5q43 0 67.5 20.5t24.5 34t5 13.5t5 -5q0 -72 -108 -98q-45 -10 -113.5 -10t-154.5 43q-131 61 -174 145q-56 -136 -56 -230 q0 -89 27 -120q6 -8 2 -11t-6 -3t-6 2q-66 55 -74 121q-4 23 -4 49q0 119 69 293q-83 -83 -101 -83q-4 0 -5 5zM180 305q4 -10 17 -31q25 -14 56.5 -14t103 19.5t138 70t66.5 111.5q0 71 -65 71h-2q-78 0 -173.5 -86t-140.5 -141z" />
<glyph unicode="l" horiz-adv-x="602" d="M-2 262q96 78 207 225q203 264 317 465q20 39 21 58q0 26 -18 26q-11 0 -29 -10q-53 -27 -57.5 -20.5t5.5 16.5q49 37 135.5 69.5t141.5 34.5q86 0 86 -53q0 -31 -29.5 -82t-170 -203.5t-171.5 -191.5q-211 -276 -268 -440q-14 -43 -14 -72q0 -55 55 -55q33 0 103.5 26.5 t183 116.5t151.5 130t47 39t6 -12.5t-10 -19.5q-174 -178 -288.5 -256t-213.5 -78q-84 0 -116.5 39t-32.5 90q0 92 65 222q-88 -94 -110 -94q-8 0 -8 11q0 9 12 19z" />
<glyph unicode="m" horiz-adv-x="1060" d="M-117 18q12 18 60 80q104 127 182 246q-88 -88 -150 -137q-20 -16 -23 -2t9 25.5t41 37t38 33.5t34.5 31.5t38.5 38.5q57 68 84 114q10 25 9 48.5t-10.5 30.5t-7.5 18q0 16 17 16q8 0 18 -4q63 -29 64 -125q0 -57 -23 -125q41 63 88 125q84 109 168 109q57 0 58 -66 q0 -61 -86 -219q86 111 133 162q108 112 207 112h2q106 0 120 -92v-18q0 -76 -129 -250q-78 -103 -77.5 -128.5t26.5 -25.5t72 31q117 80 233 192q16 16 22.5 8t6.5 -12t-45 -47t-99.5 -90t-136.5 -97t-135 -50q-110 0 -110 96q0 37 12 84q27 80 231 309q27 29 27 45.5 t-41 16.5t-129 -72q-31 -25 -76 -73t-105.5 -154.5t-88.5 -188.5q-12 -37 -50 -37q-8 0 -20 2q-39 10 -31 37q160 285 190.5 356.5t30.5 102.5t-24 31q-109 0 -311 -355q-74 -115 -119 -164t-82 -49h-8q-53 0 -105 43z" />
<glyph unicode="n" horiz-adv-x="806" d="M-117 18q12 18 60 80q104 127 182 246q-88 -88 -150 -137q-20 -16 -23 -2t9 25.5t41 37t38 33.5t34.5 31.5t38.5 38.5q57 68 84 114q10 25 9 48.5t-10.5 30.5t-7.5 18q0 16 17 16q8 0 18 -4q64 -29 64 -116q0 -84 -37 -179q80 104 121 150q105 118 207 118h2 q100 0 118 -86q2 -12 2 -37.5t-19 -68.5t-91 -141.5t-83 -124t-7 -38t18 -14.5q2 0 5 -1q26 0 79 34q84 59 217 182q23 23 23 -4q0 -10 -11 -20q-199 -184 -294 -230q-67 -34 -117 -34q-34 0 -60 16q-39 25 -39 68q0 44 17 90q37 104 211 301q29 33 29 51t-38 18t-120 -71 q-76 -66 -183.5 -219.5t-155.5 -208t-85 -54.5h-8q-53 0 -105 43z" />
<glyph unicode="o" horiz-adv-x="763" d="M-45 213q0 14 36 45t109.5 103.5t116.5 109.5q125 104 264 104q51 0 105 -26q78 -37 78 -135q0 -119 -119 -244q-47 -53 -131 -107q168 27 356 203q10 8 18.5 7t8.5 -9t-9 -16q-225 -213 -419 -213h-9q-137 -70 -239 -70q-86 0 -117 58q-16 29 -16 65q0 84 39 164 q-27 -27 -52 -43q-20 -18 -20 4zM117 99q0 -42 31.5 -59t70.5 -17t113 38q-4 0 -13 5q-25 12 -24 32q0 72 80 146q57 51 116.5 51t67.5 -45q51 78 51 132t-47 83q-26 22 -58 22h-3q-125 0 -230.5 -98t-140.5 -209q-14 -39 -14 -81z" />
<glyph unicode="p" horiz-adv-x="763" d="M-309 -449q0 178 364 728q-76 -76 -93 -76q-5 0 -5 6q0 16 23 37q100 86 216.5 235.5t150.5 183t83 33.5t98 -51q-41 -49 -153 -203q98 92 198 129q49 18 88 19h1l77 -26q39 -25 39 -93q0 -143 -139 -303q-104 -123 -225 -178q-68 -33 -113 -33t-74 21q-49 33 -49 96 t35 145q-453 -647 -453 -774q0 -12 5.5 -21.5t-3.5 -11.5l-6 2q-66 57 -65 135zM209 92q0 -92 72 -92q41 0 123.5 41t161.5 134t112 168t33 122q0 84 -66 84q-43 0 -133 -43t-168 -135q-135 -156 -135 -279z" />
<glyph unicode="q" horiz-adv-x="710" d="M-20 106q0 152 135 297q102 109 254 154q68 23 132 23t124.5 -36t76.5 -85q14 0 17 -6q47 -8 90 -39q-120 -156 -317 -451q-272 -406 -273 -530q0 -37 35 -58q8 -6 -8 -12q-88 14 -107 125q-2 18 -2 49t14.5 92.5t32.5 104.5q80 176 240 426q-66 -72 -154 -125 t-147.5 -53t-101 35.5t-41.5 88.5zM135 72q0 -43 41 -43q33 0 101.5 46t116.5 95t120 131t84 96q47 47 47 72q0 47 -70 47q-39 0 -94 -24q-96 -45 -182 -148q-164 -192 -164 -272z" />
<glyph unicode="r" horiz-adv-x="739" d="M-39 209q0 16 23 39q143 123 235 260q-18 12 -18 33.5t3 52.5t32 82q49 86 102 86q45 0 45 -49q0 -68 -64 -148q-31 -37 -57 -53q76 25 221 25q72 0 103 -54q4 -8 4 -24t-27 -49q-90 -104 -146.5 -191.5t-56.5 -123.5t42 -36t172.5 84t240.5 189q10 10 18.5 8t8.5 -10 t-8 -19q-264 -242 -404 -303q-59 -24 -86 -24h-2q-98 0 -134 32.5t-36 71.5q0 78 31 119q100 141 159 239q18 29 -7 40.5t-63 11.5t-40 2q-137 -184 -272 -291q-16 -14 -19 0z" />
<glyph unicode="s" horiz-adv-x="628" d="M-121 119q0 4 7.5 4t9.5 -8q37 -82 120 -82q104 0 183 102q57 76 101 159t73.5 132t92 110.5t114.5 75.5q-12 6 -41 6t-108 -41.5t-156.5 -106t-168 -146.5t-108.5 -96.5t-22.5 0t10.5 26.5q53 45 153.5 140t152.5 139.5t117.5 76t98.5 31.5q82 0 100 -29 q-53 -23 -87 -119t-76 -223t-105 -198q53 20 164.5 95t197.5 163q18 16 27 4v-9.5t-39 -44t-95 -87t-140 -107.5q-174 -123 -349.5 -123t-224.5 150q-2 2 -2 6z" />
<glyph unicode="t" horiz-adv-x="567" d="M-31 231.5q0 6.5 17 20.5q150 131 204 199q-39 -14 -52 -2t-18 32.5t20.5 50t75.5 43t75 15.5q31 45 76 112.5t72.5 107.5t44 58.5t73.5 31.5t110.5 13t53.5 -11t-88 -95t-205 -223q139 -23 182 -88q16 -29 5 -37t-25 6q-43 43 -137 43q-41 0 -93 -8q-166 -213 -208 -348 q-14 -39 -15 -66q0 -72 60 -72q63 0 178 88q150 113 260 224q20 23 26.5 10.5t-10.5 -27.5q-176 -184 -295.5 -271t-220.5 -87q-137 0 -137 145q0 70 39 166l-37 -35q-16 -16 -23.5 -9t-7.5 13.5z" />
<glyph unicode="u" horiz-adv-x="937" d="M23 274q0 12 38.5 44t106.5 103t118 108.5t115 37.5q74 0 101 -55q10 -20 10 -53t-16.5 -73t-37 -70.5t-55 -78t-65.5 -90.5t-31 -64.5t21 -21.5q37 0 108 66l66 63q100 109 176 209l76 93q35 39 73 40q59 0 111 -45q-12 -18 -40 -53t-55.5 -70.5t-63.5 -83t-62.5 -88 t-54 -87t-39.5 -78.5q-15 -44 -16 -71q0 -30 18 -42q10 -10 -4 -10q-4 0 -9 2q-78 27 -78 126q0 100 66 238q-218 -282 -355 -282h-1q-104 0 -105 98q0 35 15 82q31 92 208 291q23 27 23 45t-24.5 18t-73.5 -36.5t-137.5 -119.5t-107.5 -99.5t-19 7.5z" />
<glyph unicode="v" horiz-adv-x="626" d="M-38 231.5q11 10.5 40 36t38 33.5t34.5 31.5t38.5 38.5q57 68 84 114q10 25 9 48.5t-10.5 30.5t-7.5 18q2 25 35 12q72 -33 78 -94q6 -31 6 -85.5t-20 -168.5q-20 -119 -78 -205q92 59 212 295.5t187 302.5q29 29 72 29q75 -1 100 -60q2 -4 2 -8t-7 -2t-9 6 q-14 31 -39 31q-74 0 -264 -303q-119 -193 -199 -273q-41 -41 -96 -57t-80 -16t-39 6q33 47 70 152.5t56.5 186.5t17.5 81l-87 -86q-66 -68 -131 -119q-24 -19 -24 0q0 14 11 24.5z" />
<glyph unicode="w" horiz-adv-x="1060" d="M-45 209q0 18 22 39q49 37 155 143.5t145.5 127t65.5 20.5t38 -7.5t6 -15.5q-59 -59 -117 -168q-77 -150 -77 -240q0 -16 2 -26q6 -18 23 -18q20 0 56 24q25 16 56.5 44t137 163t148.5 157.5t70 22.5t42 -13t7 -22q-104 -111 -141 -284q-6 -33 -6 -53q0 -23 8 -28 q14 -9 27.5 -8t31.5 11q82 45 185 174q6 193 84 278q33 41 127 41q41 0 36 -24l-12 -21q-124 -153 -149 -241q-10 -37 -10 -69t25.5 -32t82.5 47.5t75.5 65.5t18.5 -6q0 -10 -6 -17q-66 -66 -96 -88q-57 -45 -98 -45q-66 0 -74 74q-197 -231 -314 -231q-72 0 -105.5 30.5 t-33.5 65.5t10 84q-164 -180 -268 -180q-72 0 -106.5 31.5t-34.5 70.5q0 76 26.5 119t90.5 119q-129 -109 -140.5 -119t-13.5 4z" />
<glyph unicode="x" horiz-adv-x="634" d="M-227 -205q0 6 6 15q182 244 391 450h-2q-31 82 -31 154q0 88 33 135q24 31 94 61q44 18 58 18q9 0 8 -7q-2 -4 -4 -9q-33 -53 -33 -118.5t6 -112.5q354 313 588 313q16 0 16 -4t-4 -4h-4q-139 0 -426 -225q-53 -43 -160 -137q23 -102 64 -187q63 -125 143 -125 q43 0 62 25q4 4 8 1t0 -7q-31 -41 -82 -41q-203 0 -314 223q-254 -242 -376 -406q-13 -18 -27 -18t-14 6z" />
<glyph unicode="y" horiz-adv-x="854" d="M-535 -272q0 10 4.5 14t10.5 0t6 -12q20 -115 109.5 -186.5t205.5 -71.5q154 0 314.5 117.5t301 309t331.5 560.5q-47 -72 -113 -156q-256 -315 -393 -315q-104 0 -105 98q0 35 15 82q28 82 208 291q25 27 25 45t-24.5 18t-74.5 -36.5t-150.5 -131t-120 -110t-20.5 -1 t25.5 36t118.5 115.5t143.5 133t116.5 39q74 0 101 -55q12 -20 12 -53t-16.5 -73t-38 -71.5t-55 -76.5t-65.5 -90.5t-32 -66t17 -20.5q80 0 299 267q104 125 178 233q66 152 114 166q18 6 45 6t39.5 -22.5t12.5 -34.5t-17.5 -19.5t-31 -6.5t-17.5 1q-59 0 -100 -86 q-25 -53 -63 -169.5t-70.5 -215t-108.5 -229.5t-184.5 -246t-257 -192.5t-304 -77.5t-261 71.5t-130.5 221.5z" />
<glyph unicode="z" horiz-adv-x="858" d="M-588 -527q0 19 10 47q10 30 54 74q96 102 322.5 189.5t406.5 87.5q131 0 186 -35q27 -18 27 -31.5t-23.5 -7.5t-78 6t-180.5 -26.5t-294 -90t-237 -161.5q-23 -33 -23 -55q0 -57 111 -58q174 0 438 117q219 92 356 260q90 111 91 191q0 37 -19 67q-51 86 -244 86 q-16 0 -76.5 -1t-215.5 -36q-39 -8 -37 19q4 35 49 65q12 8 19 12t109.5 31t192.5 64q180 75 180 105l1 1q0 29 -172 29q-219 0 -246 -80q-33 23 -33 57q0 8 2 17q41 151 330 151h4h22q113 0 158 -33.5t45 -70.5q0 -66 -94 -127q-63 -41 -234 -96q41 4 113 4t160 -35 t117 -111q8 -25 8 -67.5t-37 -114.5q-55 -106 -204.5 -224t-307.5 -186q-313 -133 -555 -133q-133 0 -184 60q-17 20 -17 40z" />
<glyph unicode="{" horiz-adv-x="817" d="M86 82q0 154 195 426q20 37 20 59q0 70 -90 105q-43 16 -28.5 42.5t75.5 38t137 83t185 241.5q66 104 167 146.5t195 42.5q61 0 258 -21q17 -2 17 -16q0 -25 -23 -23q-82 12 -152.5 12.5t-123.5 -16.5q-102 -31 -195 -174q-164 -258 -477 -317q-12 0 -21 -6 q27 -10 39 -15.5t40 -16.5t43 -19.5t37 -22t31 -26.5t19 -27q16 -29 -10 -68q-90 -129 -133 -340q-12 -57 -12 -121.5t32.5 -94.5t65.5 -30q84 0 172 27q16 4 17 -12.5t-19 -22.5q-129 -33 -214 -33t-136 23q-111 49 -111 176z" />
<glyph unicode="|" horiz-adv-x="471" d="M156 -281q0 6 2 11q61 252 61 927q0 430 -24 695q-4 39 24 39q23 0 51.5 -14.5t32.5 -14.5q25 -6 25 -352t-23.5 -722t-66.5 -513q-20 -63 -58 -74h-8q-16 0 -16 18z" />
<glyph unicode="}" horiz-adv-x="870" d="M-215 -66q0 6 5 13.5t50 1.5t117 -6t129 16q100 31 193 174q166 262 477 316l20 6q-162 63 -198 110q-14 20 -14.5 41t14.5 43q94 143 133 342q12 57 12 121t-34 93.5t-66 29.5q-86 0 -170 -25q-16 -6 -19 11q4 16 21 24q127 33 212 33t138 -25q111 -49 111 -184 t-195 -418q-20 -37 -21 -59q0 -68 91 -103q41 -18 27.5 -43.5t-54.5 -33.5q-82 -14 -158 -86t-184 -244q-104 -160 -283 -176q-70 -8 -106 -8q-96 0 -232 18q-16 2 -16 18z" />
<glyph unicode="~" horiz-adv-x="1196" d="M125 483q92 176 256 176q80 0 233.5 -69.5t197.5 -69.5t80 24.5t55.5 50.5t49.5 73l74 -115q-111 -176 -256 -176q-86 0 -211 69.5t-231.5 69.5t-173.5 -147z" />
<glyph unicode="&#xa1;" horiz-adv-x="536" d="M-145 -394.5q0 17.5 31.5 50.5t86 79t78.5 70q88 92 172 230q125 205 125 303q0 37 -20 51q-10 4 -7 9t6 5t9 -2q72 -37 72 -133q0 -133 -85 -305t-151 -242q-147 -162 -252 -161q-37 0 -51 14t-14 31.5zM373 532q0 60 39 101q43 51 104 51q16 0 35.5 -16.5t19.5 -34.5 q0 -61 -32 -98q-49 -51 -103 -52q-25 0 -44 15.5t-19 33.5z" />
<glyph unicode="&#xa2;" horiz-adv-x="768" d="M111 467q0 174 157.5 301t329.5 127l37 -2q137 205 151 205q31 0 31 -14.5t-41 -66.5t-94 -134q76 -27 76 -92q0 -25 -14.5 -55.5t-46 -30.5t-10 38.5t21.5 69.5q0 43 -47 41q-164 -244 -320 -504q23 -6 47 -6q82 0 197 70l94 59q37 20 35 -4q-2 -20 -25 -35 q-94 -59 -183 -99t-181 -40h-17q-6 -12 -39 -76q-82 -158 -104 -219q-8 -27 -31 -27q-31 0 -10.5 59.5t139.5 266.5q-70 10 -111.5 53t-41.5 115zM258 453q0 -55 47 -86q121 201 293 471l-20 -11q-92 -41 -197 -147q-123 -125 -123 -227z" />
<glyph unicode="&#xa3;" horiz-adv-x="1159" d="M-94 -35q0 57 86 105q37 23 92 39q47 51 127 245.5t98 225.5q-55 2 -80.5 26.5t-25.5 42.5q0 66 121 99q4 2 19 4t31.5 5t20.5 3q199 401 357 508q96 66 196.5 65.5t169.5 -49.5q94 -66 94 -151q0 -6 -5 -8.5t-9 10.5q-16 59 -62 79.5t-75 20.5q-84 0 -154.5 -44 t-167 -165t-176.5 -258q174 -18 207 -45q31 -23 43 -44.5t8 -31.5t-26.5 3.5t-89 13.5t-236.5 -48q-4 -4 -37 -91t-98.5 -198.5t-153.5 -195.5l78 12q82 6 204 6.5t254 -23.5t241.5 -57.5t158.5 -88t49 -107.5q0 -23 -7 -45.5t-15 -22.5q-16 0 -10 14.5t6 24.5q0 45 -109 86 q-197 72 -510 72q-172 0 -287 -27q-223 -49 -275 -49t-52 39z" />
<glyph unicode="&#xa4;" horiz-adv-x="1337" d="M178 242q0 45 6 79.5t15 40.5q27 16 172 136q-57 90 -57.5 197.5t55.5 191.5q-100 80 -170 137q-18 8 -19 57q0 109 8 109l250 -221q104 90 240.5 90t241.5 -94l249 225q10 0 11 -53q0 -102 -23 -113q-10 -10 -172 -135q57 -90 57 -197.5t-57 -193.5q150 -123 172 -136 q23 -16 23 -106q0 -59 -9 -57l-251 223q-102 -92 -241.5 -92t-244.5 92l-250 -225q-6 0 -6 45zM418 690.5q0 -108.5 77.5 -186.5t186.5 -78t186.5 78t77.5 186.5t-77.5 186t-186.5 77.5t-186.5 -77.5t-77.5 -186z" />
<glyph unicode="&#xa5;" horiz-adv-x="991" d="M106 279q0 10 3 24q8 55 36 57q141 10 281 15l43 135q-166 -25 -223 -31q-25 -2 -15.5 52.5t35.5 56.5q117 10 230 14q2 6 5 17.5t5 17.5q37 154 37 338q0 41 -3 115.5t-36 146.5q-43 100 -105 100q-35 0 -87 -45t-111.5 -177t-59.5 -261q0 -23 2 -42t-4 -21.5t-10 8.5 q-18 39 -18 90q0 186 49 277t121 149q100 84 190 84q53 0 100 -31q117 -76 117 -317q0 -123 -16.5 -252t-28.5 -178q139 213 333.5 404.5t387.5 305.5q100 59 190 60q48 0 66 -27q2 -4 2 -8t-15.5 -4h-23.5q-164 0 -409.5 -228.5t-448.5 -523.5q78 -2 178 -14 q27 -4 29 -20.5t-25 -16.5q-123 -2 -225 -12q-47 -74 -94 -162q82 -4 192 -17q29 -4 30 -20t-26 -16q-123 -2 -225 -13q-8 -16 -8 -20q-63 -199 -63.5 -313.5t71.5 -131.5q10 -4 29.5 -4t42 17.5t22.5 8.5t-12 -18q-37 -29 -90 -28h-19q-182 14 -182 211q0 96 47 258 q-158 -23 -272 -37q-18 -2 -19 27z" />
<glyph unicode="&#xa6;" horiz-adv-x="471" d="M156 -281q0 6 2 11q53 210 59 716q0 31 48 31t48 -37q-27 -508 -75 -665q-20 -63 -58 -74h-8q-16 0 -16 18zM195 1352q-4 39 24 39q23 0 51.5 -14.5t32.5 -14.5q25 -6 25 -230.5t-6 -445.5q0 -33 -51.5 -33t-53.5 31q0 340 -22 668z" />
<glyph unicode="&#xa7;" horiz-adv-x="1132" d="M-532 -211q76 -68 209 -96.5t253 -28.5q180 2 267.5 28.5t152 62.5t118.5 84t54 106.5t-78 105.5q-6 4 -123.5 51.5t-180 104.5t-62.5 131q0 117 100 205q176 152 418 166q-6 20 -2 51q16 135 180 272t368 217t347 80q100 0 155.5 -36t55.5 -99v-18q-6 -63 -223 -265 q-80 -74 -140.5 -165t-60.5 -160v-13q-63 49 -64 132q0 74 64 180q92 156 293 295q-16 27 -57.5 26.5t-77 -10.5t-84.5 -29q-80 -33 -129 -61q-184 -98 -344 -230.5t-168 -197.5q-4 -51 55 -84q51 -31 118.5 -58.5t98.5 -41.5q92 -47 131 -111t39 -121q0 -80 -61.5 -147.5 t-138.5 -91t-140 -24.5t-117.5 -1t-122.5 14q55 -63 56 -135q0 -37 -17 -78q-45 -113 -186 -184q-109 -55 -236 -78q-131 -23 -217 -22q-156 0 -311.5 66.5t-191.5 207.5zM193 299q0 -43 23.5 -66.5t38.5 -36t44 -27.5t47 -24q92 -41 109 -49q66 -6 166 -6t193 27.5 t157 85.5q74 66 73.5 132t-83.5 120q-16 10 -93 39q-184 72 -243 151q-8 -4 -49 -15.5t-72 -21.5q-82 -29 -152 -78q-159 -108 -159 -231z" />
<glyph unicode="&#xa8;" horiz-adv-x="643" d="M137 814q0 28 32 64.5t77 36.5q12 0 28.5 -11t16.5 -43t-31 -66.5t-78 -34.5q-14 0 -29.5 13t-15.5 41zM387 818q4 30 28.5 58.5t45 33.5t34 5t30 -11t16.5 -43t-31 -62q-33 -39 -62.5 -39t-47 14t-13.5 44z" />
<glyph unicode="&#xa9;" horiz-adv-x="1570" d="M47 584q0 227 162 424q254 313 745 313q170 0 314 -47q90 -31 166 -103q100 -94 100 -225q0 -92 -50 -223t-161 -270.5t-283 -241.5q-211 -125 -450 -125q-135 0 -258 47t-193 146q-92 129 -92 305zM117 666q0 -182 127 -306q78 -76 186.5 -107.5t183.5 -31.5 q287 0 496 131q160 102 258 250q86 123 86 238q0 150 -139 256q-113 88 -243 119.5t-210 31.5t-119 -2q-164 -12 -291.5 -85t-213.5 -183q-121 -152 -121 -311zM325.5 603q0.5 138 123.5 267q94 100 259.5 165t288.5 65t166 -62q18 -23 18.5 -58.5t-44.5 -88.5 q-88 -98 -121 -98q-18 0 -19 22q0 35 55.5 82t55.5 90q0 82 -129 82t-256 -65.5t-217 -163.5q-109 -127 -109 -226.5t109 -150.5q66 -31 135.5 -31t152.5 15.5t188 64.5t163 96q8 8 11 2t-1 -10q-49 -61 -182 -137q-205 -117 -365 -117q-100 0 -172 47q-111 72 -110.5 210z " />
<glyph unicode="&#xaa;" horiz-adv-x="591" d="M-16 626.5q0 22.5 7 47t15 24.5q111 14 195 14.5t120.5 -5t41 -13.5t1 -15t-41 -9t-91 -11.5t-129.5 -27.5q-109 -27 -113.5 -27t-4.5 22.5zM-6 848q0 76 71.5 152.5t163.5 105.5q39 10 78 10t74 -20.5t47 -51.5q27 0 44 -14t-3 -51q-104 -115 -104 -158q0 -23 19 -22.5 t85 36t168 134.5q16 14 16 2l-4 -13q-211 -199 -305 -198q-31 0 -49.5 18.5t-18.5 44.5q0 23 21 80q-55 -68 -118.5 -106.5t-101.5 -38.5t-60.5 25.5t-22.5 64.5zM90 827.5q0 -36.5 25 -36.5q51 0 159 110q2 2 15.5 14.5t25.5 22.5q86 88 86.5 114.5t-32.5 26.5 q-92 0 -185.5 -107.5t-93.5 -144z" />
<glyph unicode="&#xab;" horiz-adv-x="937" d="M63 371q0 10 35 28q152 90 286 195.5t163 167.5q10 20 36.5 22t27.5 -2t-1 -8q-63 -137 -372 -328q51 -23 103 -84t73 -141q4 -18 4 -37q0 -57 -43 -106t-49 -49q-12 0 4 26q14 31 14 62q0 102 -100 190q-68 59 -124.5 59.5t-56.5 4.5zM385 416q0 12 102.5 72.5 t226.5 158.5t152 160q10 23 49 24q18 -2 17 -12q-70 -141 -375 -325q51 -23 103.5 -85.5t72.5 -142.5q4 -18 4 -37q0 -57 -43 -106t-51 -49q-10 0 8 26q12 29 13 60q-1 104 -101 192q-68 59 -123 59.5t-55 4.5z" />
<glyph unicode="&#xac;" horiz-adv-x="739" d="M-39 209q0 16 23 39q229 199 313 399q6 16 18 17q6 0 15 -5q25 -10 -70 -149q68 27 223 27q72 0 103 -54q4 -8 4 -24t-27 -49q-90 -104 -146.5 -191.5t-56.5 -123.5t42 -36t172.5 84t240.5 189q10 10 18.5 8t8.5 -10t-8 -19q-264 -242 -404 -303q-61 -25 -88 -24 q-98 0 -134 32.5t-36 71.5q0 78 31 119q100 141 159 239q18 29 -7 40.5t-63 11.5t-40 2q-137 -184 -272 -291q-16 -14 -19 0z" />
<glyph unicode="&#xad;" d="M178 347q0 28 9.5 55.5t23.5 27.5q141 14 267 14t235 -16q25 -4 24.5 -20.5t-20.5 -16.5q-147 -4 -309 -33q-209 -39 -219.5 -39t-10.5 28z" />
<glyph unicode="&#xae;" horiz-adv-x="1570" d="M45 563q0 127 51 254q100 254 350 389q211 115 508 115q170 0 314 -47q90 -31 166 -103q100 -94 100 -225q0 -92 -50 -223t-161 -270.5t-283 -241.5q-213 -125 -452 -125q-109 0 -218.5 32t-181.5 107q-143 147 -143 338zM113 657q0 -51 14 -100q39 -154 180 -248 q0 63 180 324q-8 25 -6 43t33 43.5t49 23.5q178 242 198.5 242t20.5 -27q-100 -123 -204 -266q2 -2 2 -10q25 4 83 7t168 40q199 66 287 178q41 51 41 89t-48 62.5t-151.5 24.5t-281.5 -50t-248 -111q-20 -16 -14 -26.5t2 -11.5t-10 3q-27 16 -36.5 48t1.5 40q61 90 323 155 q186 45 272.5 45.5t127.5 -8.5q115 -23 114 -141q0 -18 -7 -51t-51 -84t-120 -96q-201 -115 -405 -129q-8 0 -21.5 -1t-17.5 -1q39 -98 158.5 -200t197.5 -102q33 0 56.5 14.5t25.5 37.5q4 10 10 -2q-10 -84 -135 -84t-233.5 79.5t-163.5 182.5q-129 -184 -162 -268 q-6 -16 -20 -21q135 -80 315 -80q264 0 473 131q160 102 258 250q86 123 86 238q0 150 -139 256q-195 152 -494 151q-217 0 -356 -80q-205 -117 -293 -286q-59 -115 -59 -224z" />
<glyph unicode="&#xaf;" horiz-adv-x="671" d="M106 811q0 82 23 82q129 16 195.5 16t141.5 -4t132 -28q12 -2 12 -17q1 -33 -24 -33q-59 8 -109.5 8.5t-78 -2t-75 -8.5t-69 -11t-71.5 -15.5t-58 -12.5t-13.5 -2t-5.5 27z" />
<glyph unicode="&#xb0;" horiz-adv-x="1337" d="M244 1022q0 18 6 49t50 87t89 93q68 57 148 58q37 0 71 -15q51 -20 51 -86.5t-69 -144.5q-76 -80 -195 -113q-40 -10 -69 -10q-82 0 -82 82zM287 1034.5q0 -55.5 47 -55.5q25 0 70 18.5t94 69.5q51 59 51 109.5t-65.5 50.5t-131 -68.5t-65.5 -124z" />
<glyph unicode="&#xb1;" d="M113 -38q0 28 9 55.5t23 27.5q141 14 267.5 14t234.5 -16q25 -4 25 -20.5t-21 -16.5q-147 -4 -309 -33q-209 -39 -219 -39t-10 28zM202 474.5q-1 27.5 8 56t23 28.5q129 12 291 16q90 147 189 246q12 12 31.5 12.5t46 -7t14.5 -19.5q-98 -98 -197 -234q203 -1 297 -30 q14 -4 14.5 -17.5t-9 -22.5t-23.5 -9q-90 6 -173 6t-159 -4q-131 -205 -141 -349q0 -14 -11.5 -18t-21.5 2t-10 21q10 145 104 335q-78 -8 -258 -38q-14 -2 -15 25.5z" />
<glyph unicode="&#xb2;" horiz-adv-x="991" d="M33 577.5q0 14.5 7 33t30 38.5q57 53 190 76q41 6 78 23q262 117 342 159q104 57 104 146q0 37 -28.5 71.5t-79.5 42t-92 7.5q-125 0 -228 -62q-61 -35 -61 -61.5t41 -26.5t126 20.5t140 73.5q10 14 10 -10q0 -33 -61 -72q-106 -70 -246 -69q-68 0 -84 34q-4 8 -4 27 t50 66t177 88t248 41q170 0 221 -88q16 -25 17 -54q0 -100 -139 -188q-96 -61 -383 -158q174 -2 298.5 -49t124.5 -131q0 -31 -8 -31q-8 2 -7 8.5t1 10.5q0 29 -77.5 56.5t-178.5 27.5q-182 0 -247.5 -14.5t-126 -33t-85 -23.5t-59.5 1q-10 6 -10 20.5z" />
<glyph unicode="&#xb3;" horiz-adv-x="845" d="M25 637q0 88 170 158q84 33 237 32q84 0 96 -10q23 -18 -12 -18h-21.5t-130 -24.5t-196.5 -61.5q-115 -45 -115 -95q0 -20 37 -38q39 -20 125 -20.5t246 71.5q203 88 203 182q0 41 -48 80q-49 45 -131 51q-39 2 -39 21q0 25 68 28.5t119 31.5t51 77q0 61 -66 86 q-29 12 -71.5 12t-114.5 -17.5t-82 -58.5q-6 -23 29 -38t55.5 -18t18.5 -11q-4 -4 -47.5 -4t-96.5 20q-29 14 -28 31q0 96 247 127q52 6 119.5 6t113.5 -24.5t46 -69.5t-54.5 -91t-117.5 -69q55 0 99 -36t44 -82t-16 -87q-74 -174 -395 -246q-72 -16 -127.5 -16t-96.5 8 q-104 16 -116 94q-2 8 -2 19z" />
<glyph unicode="&#xb4;" horiz-adv-x="563" d="M74 713q0 6 32 12q106 8 225.5 84t119.5 123q0 8 -4.5 15t3 7t47.5 -13t72 -44q4 -6 4 -12q0 -25 -46 -64t-156 -80q-123 -43 -248 -43q-49 0 -49 15z" />
<glyph unicode="&#xb5;" horiz-adv-x="735" d="M-352 -582q0 139 240.5 532.5t394.5 547.5q45 45 94 45t100 -49q-45 -49 -131 -158q-6 -10 -85 -121t-79 -132.5t21 -21.5q37 0 108 66l66 63q100 109 166.5 196t70.5 93q8 4 13 13q35 39 73 40q61 0 113 -45q-12 -18 -40 -53t-55.5 -70.5t-63.5 -83t-62.5 -88t-54 -87 t-37.5 -78.5q-33 -90 0 -113q8 -8 -4 -10q-4 0 -9 2q-78 27 -77.5 127t65.5 237q-223 -283 -358 -282h-19q-379 -567 -379 -674q0 -10 7 -19q8 -12 -9 -12q-2 0 -4 2q-66 66 -65 133z" />
<glyph unicode="&#xb6;" horiz-adv-x="948" d="M-299 -385q6 12 20 16q102 20 216 162q123 154 195.5 279t103.5 178q84 147 137 256q-35 -4 -64 -4q-166 0 -166 104q0 18 4 39q31 150 213.5 289t339.5 172q25 6 88 24q111 29 135.5 29h28.5q106 106 187 107q23 0 26 -15q-6 -6 -36.5 -16t-45.5 -23q-88 -66 -215 -261 t-234.5 -397t-229 -394.5t-199.5 -251.5q-10 -10 -21 -10q-10 -4 -10 4q8 14 31 32q127 127 366 611q156 313 258 459q49 68 101 126q-170 0 -604 -815q-16 -31 -48 -91t-121 -194t-215 -270.5t-216 -154.5h-11q-14 0 -14 10z" />
<glyph unicode="&#xb7;" horiz-adv-x="475" d="M197 295q0 61 34 98q47 53 101 53q23 0 43 -16t20 -54t-42 -84t-95 -46q-23 0 -42 15t-19 34z" />
<glyph unicode="&#xb8;" horiz-adv-x="1552" d="M217 -462q0 11 19.5 16.5t55.5 8.5t54.5 6t38.5 23q31 33 31 62t-19.5 71t-19.5 77.5t43 82.5t92 47q10 0 13 -2t1 -8q-30 -4 -60 -34.5t-30 -55.5t44 -86t44 -98q0 -121 -297 -121q-10 0 -10 11z" />
<glyph unicode="&#xb9;" horiz-adv-x="692" d="M92 913.5q0 16.5 29 32t115 80t160.5 118.5t137 78.5t91 24.5t43 -9t14.5 -15t-6 -5t-10 1q-39 0 -88.5 -53.5t-98.5 -149.5t-90 -185.5t-83 -191.5t-56 -133q-80 14 -109 67q-8 14 -8 41t17 72q70 195 200 365q-68 -47 -235 -140q-23 -14 -23 2.5z" />
<glyph unicode="&#xba;" horiz-adv-x="458" d="M-27 897q0 10 21.5 28.5t65.5 61.5t67 62q84 68 156 67q33 0 63 -14q51 -23 51 -89.5t-69 -142.5q-33 -35 -80 -61q100 12 213 121q16 14 16 -2q0 -4 -4 -8q-133 -129 -252 -129h-4q-82 -45 -129 -46q-94 0 -94 82q0 55 22 93l-30 -25q-12 -12 -13 2zM-16 626.5 q0 22.5 7 47t15 24.5q111 14 195 14t147 -10q16 0 16.5 -15t-14.5 -15q-109 -6 -215 -33q-141 -35 -146 -35t-5 22.5zM14 831q0 -61 49 -61q37 0 95 31q-51 23 -52 78q0 61 47.5 108t98.5 60q-12 2 -27 2q-55 0 -121 -56q-90 -76 -90 -162zM137.5 886.5 q-0.5 -59.5 38.5 -73.5q29 16 74 64q55 57 55 107t-33 50q-27 0 -75 -39q-59 -49 -59.5 -108.5z" />
<glyph unicode="&#xbb;" horiz-adv-x="970" d="M39 27q68 135 375 325q-51 23 -103.5 84.5t-72.5 141.5q-4 18 -5 38q0 57 43 106.5t50 49.5q12 0 -4 -27q-14 -31 -15 -61q1 -102 101 -190q68 -59 123 -59.5t55 -4.5q0 -10 -17.5 -21.5t-102.5 -62.5t-209 -148.5t-153 -158.5q-10 -23 -49 -25q-18 2 -16 13zM421 60.5 q-1 5.5 1 9.5q33 72 137.5 158.5t235.5 166.5q-51 23 -103.5 85.5t-73.5 142.5q-4 18 -4 36q0 57 43 106.5t50 49.5q12 0 -5 -27q-14 -31 -14 -61q0 -102 100 -190q68 -59 123.5 -59.5t55.5 -4.5q0 -10 -17.5 -21.5t-102.5 -62.5t-209 -148.5t-153 -158.5q-10 -23 -36.5 -25 t-27.5 3.5z" />
<glyph unicode="&#xbc;" horiz-adv-x="1218" d="M76 -111q0 86 237.5 472.5t436 672t221.5 285.5l71 10q45 0 15 -39q-266 -348 -555 -776t-377 -633q-10 -23 -25 -22q-4 0 -14 6t-10 24zM92 913.5q0 16.5 29 32t115 80t160.5 118.5t137 78.5t91 24.5t45 -11t12.5 -14t-8 -3h-8q-39 0 -88.5 -53.5t-98.5 -149.5 t-90 -185.5t-83 -191.5t-56 -133q-80 14 -109 67q-8 14 -8 41t17 72q70 195 200 365q-68 -47 -235 -140q-23 -14 -23 2.5zM410 212q0 9 18 30q20 20 78.5 63t146.5 112.5t158 119.5q254 186 336 186q41 0 41 -18q0 -6 -7 -6.5t-10 -0.5q-61 0 -143 -115.5t-158 -279.5 q223 -16 224 -115q0 -37 -15 -30q-4 2 -2 8t2 10q0 25 -59 43.5t-176 18.5q-55 -141 -55.5 -198.5t45.5 -78.5q8 -6 -7 -12q-16 -2 -32 -2q-88 0 -119 71q-10 25 -10 73t39 140q-63 -2 -143.5 -23.5t-111 -21.5t-34.5 15q-6 2 -6 11zM530 276q113 25 209 27q10 20 70 120 t76 118q-25 -14 -166 -122t-189 -143z" />
<glyph unicode="&#xbd;" horiz-adv-x="1368" d="M76 -111q0 86 237.5 472.5t436 672t221.5 285.5l71 10q45 0 15 -39q-266 -348 -555 -776t-377 -633q-10 -23 -25 -22q-4 0 -14 6t-10 24zM92 913.5q0 16.5 29 32t115 80t160.5 118.5t137 78.5t91 24.5t45 -11t12.5 -14t-8 -3h-8q-39 0 -88.5 -53.5t-98.5 -149.5 t-90 -185.5t-83 -191.5t-56 -133q-80 14 -109 67q-8 14 -8 41t17 72q70 195 200 365q-68 -47 -235 -140q-23 -14 -23 2.5zM362.5 -26.5q-0.5 16.5 8 36t30.5 41.5q57 53 207 82q49 8 82 23q272 121 350 163q133 72 134 162q0 49 -40 85t-86.5 42t-89.5 6q-132 0 -243 -63 q-70 -39 -70 -68.5t44 -29.5t108 16q121 29 178 88q6 4 8 0q2 -6 2 -14q0 -35 -61 -74q-119 -76 -269 -76q-74 0 -92 35q-4 10 -4 18q0 31 55.5 82.5t191.5 96.5t265 45q184 0 240 -97q18 -27 18 -59q0 -106 -149 -201q-115 -72 -414 -170q260 -4 393 -94q63 -43 64 -102 q0 -33 -13 -33q-8 0 -3 18.5t-29 38.5q-59 39 -242 49q-39 4 -80 5q-127 0 -192.5 -14.5t-109.5 -28t-73 -23.5q-90 -27 -108 -8q-10 6 -10.5 22.5z" />
<glyph unicode="&#xbe;" horiz-adv-x="1458" d="M25 637q0 88 170 158q84 33 237 32q84 0 96 -10q23 -18 -12 -18h-21.5t-130 -24.5t-196.5 -61.5q-115 -45 -115 -95q0 -20 37 -38q39 -20 125 -20.5t246 71.5q203 88 203 182q0 41 -48 80q-49 45 -131 51q-39 2 -39 21q0 25 68 28.5t119 31.5t51 77q0 61 -66 86 q-29 12 -71.5 12t-114.5 -17.5t-82 -58.5q-6 -23 29 -38t55.5 -18t18.5 -11q-4 -4 -47.5 -4t-96.5 20q-29 14 -28 31q0 96 247 127q52 6 119.5 6t113.5 -24.5t46 -69.5t-54.5 -91t-117.5 -69q55 0 99 -36t44 -82t-16 -87q-74 -174 -395 -246q-72 -16 -127.5 -16t-96.5 8 q-104 16 -116 94q-2 8 -2 19zM285 -233q0 86 237.5 472t436 671.5t221.5 285.5l71 10q45 0 15 -39q-266 -348 -555 -776t-377 -633q-10 -23 -25 -22q-4 0 -14 6t-10 25zM674 216q4 13 17.5 26.5t72.5 58.5t149.5 115.5t155.5 120.5q254 186 340 186q20 0 33 -8q8 -8 8 -13.5 t-7 -4.5t-9 1q-63 0 -146.5 -115.5t-154.5 -279.5q111 -8 167 -39t56 -76q0 -37 -15 -30q-4 2 -2 7t2 9q0 25 -58 44.5t-179 19.5q-53 -133 -53 -194.5t45 -82.5q8 -6 -6 -12q-16 -2 -33 -2q-90 0 -119 71q-12 27 -12 76t39 137q-76 -6 -149 -25.5t-102.5 -19.5t-37.5 15 q-6 2 -2 15zM793 276q109 25 208 27q25 47 76.5 133.5t67.5 104.5q-29 -18 -170 -126t-182 -139z" />
<glyph unicode="&#xbf;" horiz-adv-x="536" d="M-485 -416q0 49 26 101q47 96 154.5 174t224.5 145.5t227 134.5q176 104 177 164q0 16 -9.5 25.5t-7.5 19.5q2 14 19 14q6 0 12 -4q25 -23 24 -51q0 -84 -200 -221q-154 -111 -375 -279q-147 -137 -147 -225q0 -45 41 -78q63 -49 192 -49q176 0 313.5 56.5t224.5 107.5 t142 102q102 94 45 127q-12 6 -35 7q-86 0 -228 -64.5t-248.5 -134.5t-139.5 -125q0 -2 -3 -8t-10.5 3t-7.5 27.5t27 55.5q135 199 305 272q154 70 266 70q94 0 127 -55q12 -20 12.5 -42t-11 -57t-74 -98.5t-162 -122.5t-197.5 -98q-295 -115 -463 -115t-221 125 q-20 47 -20 96zM373 532q0 60 39 101q43 51 104 51q16 0 35.5 -16.5t19.5 -34.5q0 -61 -32 -98q-49 -51 -103 -52q-25 0 -44 15.5t-19 33.5z" />
<glyph unicode="&#xc0;" horiz-adv-x="2109" d="M-55 170q0 39 14 80q61 168 340 285q336 139 809 139q233 0 467 -74q55 57 163.5 171t172.5 179q184 190 301 281q197 154 360 153q74 0 135.5 -23.5t73.5 -36.5t12 -15t-4 -7.5t-12 5.5q-39 37 -151 36q-190 0 -402 -165q-152 -123 -252 -224.5t-209.5 -215 t-148.5 -152.5q205 -76 223 -199q2 -12 -1 -16t-8 0t-7 12q-16 39 -115 61q-88 20 -203 31q-416 -401 -735 -510q-174 -61 -330 -61q-279 0 -386 83t-107 183zM106 86q0 -53 58 -96q68 -51 234.5 -51t361.5 55q291 90 692 485q-64 4 -127 4q-272 0 -573 -57 q-463 -82 -602 -244q-43 -51 -44 -96zM1812 170q0 100 40 214t142.5 273.5t199 276.5t185.5 218t93 110q25 37 33 -9q2 -14 2 -32.5t-10 -32.5q-127 -156 -246 -352q-199 -332 -285 -605q-33 -109 -33 -225t70 -188q4 -2 4 -8q-4 -14 -16 -7q-178 125 -179 367zM2370 1749 q0 14 8 26.5t52 23.5t51 11t7 -6q-6 -10 -6 -20q0 -41 92 -113t187 -86q25 -4 26 -12q4 -16 -80 -6t-177 52t-126.5 79t-33.5 51z" />
<glyph unicode="&#xc1;" horiz-adv-x="2109" d="M-55 170q0 39 14 80q61 168 340 285q336 139 809 139q233 0 467 -74q55 57 163.5 171t172.5 179q184 190 301 281q197 154 360 153q74 0 135.5 -23.5t73.5 -36.5t12 -15t-4 -7.5t-12 5.5q-39 37 -151 36q-190 0 -402 -165q-152 -123 -252 -224.5t-209.5 -215 t-148.5 -152.5q205 -76 223 -199q2 -12 -1 -16t-8 0t-7 12q-16 39 -115 61q-88 20 -203 31q-416 -401 -735 -510q-174 -61 -330 -61q-279 0 -386 83t-107 183zM106 86q0 -53 58 -96q68 -51 234.5 -51t361.5 55q291 90 692 485q-64 4 -127 4q-272 0 -573 -57 q-463 -82 -602 -244q-43 -51 -44 -96zM1812 170q0 100 40 214t142.5 273.5t199 276.5t185.5 218t93 110q25 37 33 -9q2 -14 2 -32.5t-10 -32.5q-127 -156 -246 -352q-199 -332 -285 -605q-33 -109 -33 -225t70 -188q4 -2 4 -8q-4 -14 -16 -7q-178 125 -179 367zM2478 1563 q-2 12 33 14q106 8 225 84t119 123q0 8 -4 15t3 7t47 -13t73 -44q4 -6 4 -21.5t-46 -54.5t-157 -79t-202 -43t-95 12z" />
<glyph unicode="&#xc2;" horiz-adv-x="2109" d="M-55 170q0 39 14 80q61 168 340 285q336 139 809 139q233 0 467 -74q55 57 163.5 171t172.5 179q184 190 301 281q197 154 360 153q74 0 135.5 -23.5t76 -37.5t8 -20.5t-14.5 4.5q-39 37 -151 36q-190 0 -402 -165q-152 -123 -252 -224.5t-209.5 -215t-148.5 -152.5 q205 -76 223 -199q2 -12 -1 -16t-8 0t-7 12q-16 39 -115 61q-88 20 -203 31q-416 -401 -735 -510q-174 -61 -330 -61q-279 0 -386 83t-107 183zM106 86q0 -53 58 -96q68 -51 234.5 -51t361.5 55q291 90 692 485q-64 4 -127 4q-272 0 -573 -57q-463 -82 -602 -244 q-43 -51 -44 -96zM1812 170q0 100 40 214t142.5 273.5t199 276.5t185.5 218t93 110q25 37 33 -9q2 -14 2 -32.5t-10 -32.5q-127 -156 -246 -352q-199 -332 -285 -605q-33 -109 -33 -225t70 -188q4 -2 4 -8q-4 -14 -16 -7q-178 125 -179 367zM2378 1560.5q0 6.5 8 18.5t38 12 t108.5 41t150.5 101q27 37 71 72.5t48 35.5t-9.5 -25.5t-13.5 -56.5q0 -94 44 -140t81 -46q6 0 21.5 2t15.5 -6q0 -10 -39 -21.5t-85 -11.5t-87 29q-66 43 -66 110q-147 -121 -266 -121q-20 0 -20 6.5z" />
<glyph unicode="&#xc3;" horiz-adv-x="2109" d="M-55 170q0 39 14 80q61 168 340 285q336 139 809 139q233 0 467 -74q55 57 163.5 171t172.5 179q184 190 301 281q197 154 360 153q74 0 135.5 -23.5t73.5 -36.5t12 -15t-4 -7.5t-12 5.5q-39 37 -151 36q-190 0 -402 -165q-152 -123 -252 -224.5t-209.5 -215 t-148.5 -152.5q205 -76 223 -199q2 -12 -1 -16t-8 0t-7 12q-16 39 -115 61q-88 20 -203 31q-416 -401 -735 -510q-174 -61 -330 -61q-279 0 -386 83t-107 183zM106 86q0 -53 58 -96q68 -51 234.5 -51t361.5 55q291 90 692 485q-64 4 -127 4q-272 0 -573 -57 q-463 -82 -602 -244q-43 -51 -44 -96zM1812 170q0 100 40 214t142.5 273.5t199 276.5t185.5 218t93 110q25 37 33 -9q2 -14 2 -32.5t-10 -32.5q-127 -156 -246 -352q-199 -332 -285 -605q-33 -109 -33 -225t70 -188q4 -2 4 -8q-4 -14 -16 -7q-178 125 -179 367zM2394 1550 q-4 8 6 19q121 115 201 114.5t134 -31t87 -30.5q55 0 78 53q23 -6 22 -28q0 -29 -43 -64q-74 -55 -131 -55t-86.5 19.5t-66.5 45.5q-41 29 -66 29q-47 0 -110 -63q-16 -18 -25 -9z" />
<glyph unicode="&#xc4;" horiz-adv-x="2109" d="M-55 170q0 39 14 80q61 168 340 285q336 139 809 139q233 0 467 -74q55 57 163.5 171t172.5 179q184 190 301 281q197 154 360 153q74 0 135.5 -23.5t73.5 -36.5t12 -15t-4 -7.5t-12 5.5q-39 37 -151 36q-190 0 -402 -165q-152 -123 -252 -224.5t-209.5 -215 t-148.5 -152.5q205 -76 223 -199q2 -12 -1 -16t-8 0t-7 12q-16 39 -115 61q-88 20 -203 31q-416 -401 -735 -510q-174 -61 -330 -61q-279 0 -386 83t-107 183zM106 86q0 -53 58 -96q68 -51 234.5 -51t361.5 55q291 90 692 485q-64 4 -127 4q-272 0 -573 -57 q-463 -82 -602 -244q-43 -51 -44 -96zM1812 170q0 100 40 214t142.5 273.5t199 276.5t185.5 218t93 110q25 37 33 -9q2 -14 2 -32.5t-10 -32.5q-127 -156 -246 -352q-199 -332 -285 -605q-33 -109 -33 -225t70 -188q4 -2 4 -8q-4 -14 -16 -7q-178 125 -179 367zM2441 1586 q4 30 35 63.5t76 33.5q12 0 28.5 -13t13.5 -45t-27.5 -59.5t-56.5 -34.5t-52.5 9t-16.5 46zM2691 1586q4 30 35 63.5t74 33.5q14 0 29.5 -12t15.5 -43t-27 -60.5t-58.5 -36.5t-52 9t-16.5 46z" />
<glyph unicode="&#xc5;" horiz-adv-x="2109" d="M-55 170q0 39 14 80q61 168 340 285q336 139 809 139q233 0 467 -74q55 57 163.5 171t172.5 179q184 190 306 285.5t247 130.5q-4 18 -4 34.5t6 46.5t50 86t89 93q68 57 150 57l71 -14q51 -23 51 -89.5t-71 -141.5q-37 -41 -101 -74q59 -23 76 -39t10.5 -22.5t-12.5 0.5 q-27 31 -119 38q-66 -29 -103.5 -28.5t-57.5 10.5q-131 -33 -275 -145q-152 -123 -252 -224.5t-209.5 -215t-148.5 -152.5q205 -76 223 -199q2 -12 -1 -16t-8 0t-7 12q-16 39 -115 61q-88 20 -203 31q-416 -401 -735 -510q-174 -61 -330 -61q-279 0 -386 83t-107 183z M106 86q0 -53 58 -96q68 -51 234.5 -51t361.5 55q291 90 692 485q-64 4 -127 4q-272 0 -573 -57q-463 -82 -602 -244q-43 -51 -44 -96zM1812 170q0 100 40 214t142.5 273.5t199 276.5t185.5 218t93 110q25 37 33 -9q2 -14 2 -32.5t-10 -32.5q-127 -156 -246 -352 q-199 -332 -285 -605q-33 -109 -33 -225t70 -188q4 -2 4 -8q-4 -14 -16 -7q-178 125 -179 367zM2503 1411.5q0 -22.5 6 -35.5q39 6 80 6l47 -2q41 23 76 60q53 59 53 109t-68 50q-37 0 -87 -30.5t-78.5 -82.5t-28.5 -74.5z" />
<glyph unicode="&#xc6;" horiz-adv-x="3661" d="M-111 227q0 332 1205 449q313 29 592 41q18 18 77.5 80.5t82 86t73.5 76t80 80t72 66.5q66 61 154.5 133t187 109.5t165.5 37.5q68 0 132 -14q55 -16 96 -54t55 -93q201 72 395 71q117 0 201 -55q90 -57 90 -168q0 -74 -41 -151q-12 -27 -16 -14.5t7 39t11 59.5 q0 94 -170 94q-211 0 -563 -148q-252 -104 -440 -235q123 -6 262 -23q473 -55 473 -176q0 -37 -35 -70.5t-45 -23.5q-4 4 -1 10t3 10q0 39 -197.5 76t-340.5 43t-297 6q-217 -217 -218 -383q0 -82 48 -147q86 -113 352 -133q29 -4 92 -4t180 24q303 53 594 209t428 357 q27 37 27 18q0 -6 -4 -23q-55 -156 -375 -365.5t-647 -279.5q-135 -27 -217 -26.5t-127 4.5q-150 16 -246 86q-168 121 -168 302t113 359q-170 -6 -416 -22q-219 -219 -410 -365q-365 -276 -764 -276q-240 0 -352 86q-158 123 -158 237zM63 141q0 -76 101 -151 q68 -51 234.5 -51t361.5 55q311 96 753 547q-279 -25 -374 -35q-1076 -103 -1076 -365zM1743 719q127 6 368 6l9 8q137 150 327.5 274.5t376.5 202.5q-29 133 -209 133t-370.5 -150.5t-501.5 -473.5z" />
<glyph unicode="&#xc7;" horiz-adv-x="1552" d="M35 313q0 276 309 557q225 201 538.5 346.5t583.5 145.5q166 0 258 -80q53 -49 54 -121q0 -100 -101.5 -201.5t-244 -173t-285.5 -118.5q-172 -59 -293 -60q-63 0 -110.5 14.5t-47.5 32.5q1 11 11 11l53 -9q98 0 291.5 87t355.5 216.5t162 227.5q0 63 -62.5 87.5 t-136.5 24.5q-240 0 -516 -137t-477 -323q-285 -270 -285 -492q0 -90 45 -156.5t119 -101.5q145 -66 313 -65q242 0 523.5 101t498.5 251q6 6 14.5 6t8.5 -9t-6 -16q-166 -174 -491.5 -305t-573.5 -131h-17q-31 -4 -60.5 -34.5t-29.5 -55.5t44 -86t44 -98q0 -121 -297 -121 q-10 0 -10 11t19.5 16.5t55.5 8.5t54.5 6t38.5 23q31 33 31 62t-19.5 71t-19.5 73.5t29.5 72.5t68.5 55q-186 16 -313 111.5t-127 275.5z" />
<glyph unicode="&#xc8;" horiz-adv-x="1867" d="M33 299q0 139 71 270q174 328 605 580q254 150 456 199q129 25 246 24.5t203 -53.5q90 -59 90 -168q0 -70 -41 -154q-12 -25 -16.5 -12.5t7 38t11.5 58.5q0 94 -170 95q-211 0 -573.5 -151t-567.5 -339q-125 -117 -192.5 -226.5t-67.5 -191.5t45 -145q78 -119 350 -141 q31 -2 96.5 -2t182.5 22q303 55 594 211t428 354q27 39 27 21q0 -8 -5 -25q-55 -156 -374 -364q-469 -307 -906 -308q-254 0 -401 150q-98 96 -98 258zM354 612q0 23 39 53.5t148 51.5q68 16 153.5 16t186.5 -12q212 -26 280 -100q12 -14 12.5 -23.5t-2.5 -15.5 q-12 -16 -43 4q-70 51 -223 51q-190 0 -377 -51q-80 -23 -110 -23q-47 0 -62 43q-2 2 -2 6zM1262 1675.5q0 14.5 8 26.5t52 23.5t51 11.5t4 -7.5t-3 -17.5q0 -41 93.5 -113.5t185.5 -87.5q25 -4 28 -12q4 -14 -80.5 -4t-178 52t-127 78t-33.5 50.5z" />
<glyph unicode="&#xc9;" horiz-adv-x="1867" d="M33 299q0 139 71 270q174 328 605 580q254 150 456 199q129 25 246 24.5t203 -53.5q90 -59 90 -168q0 -70 -41 -154q-12 -25 -16.5 -12.5t7 38t11.5 58.5q0 94 -170 95q-211 0 -573.5 -151t-567.5 -339q-125 -117 -192.5 -226.5t-67.5 -191.5t45 -145q78 -119 350 -141 q31 -2 96.5 -2t182.5 22q303 55 594 211t428 354q27 39 27 21q0 -8 -5 -25q-55 -156 -374 -364q-469 -307 -906 -308q-254 0 -401 150q-98 96 -98 258zM354 612q0 23 39 53.5t148 51.5q68 16 153.5 16t186.5 -12q212 -26 280 -100q12 -14 12.5 -23.5t-2.5 -15.5 q-12 -16 -43 4q-70 51 -223 51q-190 0 -377 -51q-80 -23 -110 -23q-47 0 -62 43q-2 2 -2 6zM1337 1511q-2 4 9 9l24 4q106 8 225 83.5t119 123.5q0 8 -4 15t3 7t43 -10t71 -41q8 -8 8 -25.5t-45 -56.5t-155.5 -78t-237.5 -43q-55 -4 -60 12z" />
<glyph unicode="&#xca;" horiz-adv-x="1867" d="M33 299q0 139 71 270q174 328 605 580q254 150 456 199q129 25 246 24.5t203 -53.5q90 -59 90 -168q0 -70 -41 -154q-12 -25 -16.5 -12.5t7 38t11.5 58.5q0 94 -170 95q-211 0 -573.5 -151t-567.5 -339q-125 -117 -192.5 -226.5t-67.5 -191.5t45 -145q78 -119 350 -141 q31 -2 96.5 -2t182.5 22q303 55 594 211t428 354q27 39 27 21q0 -8 -5 -25q-55 -156 -374 -364q-469 -307 -906 -308q-254 0 -401 150q-98 96 -98 258zM354 612q0 23 39 53.5t148 51.5q68 16 153.5 16t186.5 -12q213 -27 280 -100q20 -23 9 -39.5t-42 4.5q-70 51 -242 51 t-358 -51q-80 -23 -110 -23q-47 0 -62 43q-2 2 -2 6zM1257 1506q0 7 8.5 19.5t15.5 12.5h9q45 0 123 41t150 100q20 31 68 71t52.5 40t-10 -25.5t-14.5 -70.5t22 -90q39 -84 103 -84q8 0 23.5 2t15.5 -9q0 -12 -38 -21t-84 -9t-89 28q-66 43 -66 109q-68 -55 -143.5 -88 t-110.5 -33t-35 7z" />
<glyph unicode="&#xcb;" horiz-adv-x="1867" d="M33 299q0 139 71 270q174 328 605 580q254 150 456 199q129 25 246 24.5t203 -53.5q90 -59 90 -168q0 -70 -41 -154q-12 -25 -16.5 -12.5t7 38t11.5 58.5q0 94 -170 95q-211 0 -573.5 -151t-567.5 -339q-125 -117 -192.5 -226.5t-67.5 -191.5t45 -145q78 -119 350 -141 q31 -2 96.5 -2t182.5 22q303 55 594 211t428 354q27 39 27 21q0 -8 -5 -25q-55 -156 -374 -364q-469 -307 -906 -308q-254 0 -401 150q-98 96 -98 258zM354 612q0 23 39 53.5t148 51.5q68 16 153.5 16t186.5 -12q212 -26 280 -100q12 -14 12.5 -23.5t-2.5 -15.5 q-12 -16 -43 4q-70 51 -223 51q-190 0 -377 -51q-80 -23 -110 -23q-47 0 -62 43q-2 2 -2 6zM1364 1551.5q4 29.5 28.5 58t45 34t34 5.5t31 -12.5t14 -45t-29 -60.5t-56 -35t-51 9.5t-16.5 46zM1614 1551.5q4 29.5 28.5 58t45 34t34 5.5t30.5 -13.5t13 -44t-28.5 -59.5 t-55 -36t-51 9.5t-16.5 46z" />
<glyph unicode="&#xcc;" horiz-adv-x="1218" d="M14.5 -91.5q-0.5 23.5 9 51.5t37.5 60q61 76 246 123q100 27 194.5 27t147.5 -4q186 315 408.5 650t247.5 335l18 2q18 0 18 -10q0 -14 -22 -45q-303 -399 -621 -936q133 -14 234.5 -48t163 -100.5t61.5 -150.5q0 -55 -16 -53q-10 0 -7 14t3 20q0 47 -72 86 q-129 70 -377 70q-41 0 -84 -2q-104 -186 -143 -285q-10 -23 -19.5 -22.5t-9.5 22.5q0 53 121 283q-139 -12 -283 -70q-59 -23 -96 -38t-84 -24t-59 9q-16 12 -16.5 35.5zM168 922q0 125 125 194q158 92 393.5 146.5t443.5 54.5q139 0 279 -51q74 -29 110.5 -80t36.5 -109 q0 -47 -11 -46t-8 13.5t3 22.5q0 63 -98.5 88t-240.5 25t-372 -41q-391 -72 -548 -189q-68 -49 -68 -96t66 -92q14 -8 -1.5 -9t-25.5 7q-51 35 -74 98q-10 29 -10 64zM1130 1613.5q0 14.5 8.5 26t52.5 22.5t51 11t4 -6t-3 -16q0 -41 93.5 -115t185.5 -88q25 -4 28 -10 q4 -16 -81 -6t-178 52t-127 78.5t-34 51z" />
<glyph unicode="&#xcd;" horiz-adv-x="1218" d="M14.5 -91.5q-0.5 23.5 9 51.5t37.5 60q61 76 246 123q100 27 194.5 27t147.5 -4q186 315 408.5 650t247.5 335l18 2q18 0 18 -10q0 -14 -22 -45q-303 -399 -621 -936q133 -14 234.5 -48t163 -100.5t61.5 -150.5q0 -55 -16 -53q-10 0 -7 14t3 20q0 47 -72 86 q-129 70 -377 70q-41 0 -84 -2q-104 -186 -143 -285q-10 -23 -19.5 -22.5t-9.5 22.5q0 53 121 283q-139 -12 -283 -70q-59 -23 -96 -38t-84 -24t-59 9q-16 12 -16.5 35.5zM168 922q0 125 125 194q158 92 393.5 146.5t443.5 54.5q139 0 279 -51q74 -29 110.5 -80t36.5 -109 q0 -47 -11 -46t-8 13.5t3 22.5q0 63 -98.5 88t-240.5 25t-372 -41q-391 -72 -548 -189q-68 -49 -68 -96t66 -92q14 -8 -1.5 -9t-25.5 7q-51 35 -74 98q-10 29 -10 64zM1253 1462q0 4 11 8l22 5q106 8 225 83.5t119 122.5q0 8 -4 15.5t3 7.5t47 -13t73 -42q4 -6 4 -22.5 t-46 -55.5t-156.5 -78t-202 -42t-95.5 11z" />
<glyph unicode="&#xce;" horiz-adv-x="1218" d="M14.5 -91.5q-0.5 23.5 9 51.5t37.5 60q61 76 246 123q100 27 194.5 27t147.5 -4q186 315 408.5 650t247.5 335q2 0 10 1t12 0t9 -3t5 -8q0 -12 -22 -43q-303 -399 -621 -936q133 -14 234.5 -48t163 -100.5t61.5 -150.5q0 -55 -16 -53q-10 0 -7 14t3 20q0 47 -72 86 q-129 70 -377 70q-41 0 -84 -2q-104 -186 -143 -285q-10 -23 -19.5 -23t-9.5 23q0 53 121 283q-139 -12 -283 -70q-59 -23 -96 -38t-84 -24t-59 9q-16 12 -16.5 35.5zM168 922q0 125 125 194q158 92 393.5 146.5t443.5 54.5q139 0 279 -51q74 -29 110.5 -80t36.5 -109 q0 -47 -11 -46t-8 13.5t3 22.5q0 63 -98.5 88t-240.5 25t-372 -41q-391 -72 -548 -189q-68 -49 -68 -96t66 -92q16 -10 -7 -10q-12 0 -20 8q-51 35 -74 98q-10 29 -10 64zM1145 1416q0 7 7 19.5t14.5 11.5t9.5 -1q45 0 121.5 41t148.5 100l2 2q25 35 71 72t50 37 t-10.5 -24.5t-14.5 -69.5t23 -91q41 -84 104 -83q6 0 21.5 2t15.5 -7q0 -12 -39 -23t-85 -11t-85 26q-66 45 -67 113q-148 -121 -267 -121q-20 0 -20 7z" />
<glyph unicode="&#xcf;" horiz-adv-x="1218" d="M14.5 -91.5q-0.5 23.5 9 51.5t37.5 60q61 76 246 123q100 27 194.5 27t147.5 -4q186 315 408.5 650t247.5 335l18 2q18 0 18 -10q0 -14 -22 -45q-303 -399 -621 -936q133 -14 234.5 -48t163 -100.5t61.5 -150.5q0 -55 -16 -53q-10 0 -7 14t3 20q0 47 -72 86 q-129 70 -377 70q-41 0 -84 -2q-104 -186 -143 -285q-10 -23 -19.5 -22.5t-9.5 22.5q0 53 121 283q-139 -12 -283 -70q-59 -23 -96 -38t-84 -24t-59 9q-16 12 -16.5 35.5zM168 922q0 125 125 194q158 92 393.5 146.5t443.5 54.5q139 0 279 -51q74 -29 110.5 -80t36.5 -109 q0 -47 -11 -46t-8 13.5t3 22.5q0 63 -98.5 88t-240.5 25t-372 -41q-391 -72 -548 -189q-68 -49 -68 -96t66 -92q14 -8 -1.5 -9t-25.5 7q-51 35 -74 98q-10 29 -10 64zM1285 1463.5q3 31.5 32 64.5t76 33q14 0 31.5 -14.5t13.5 -44t-29 -57.5t-55.5 -37t-51 7.5t-17.5 48z M1535 1463.5q3 31.5 31.5 64.5t75.5 33q14 0 30 -13.5t16 -41t-27 -58.5t-58.5 -40t-52.5 7q-18 17 -15 48.5z" />
<glyph unicode="&#xd0;" horiz-adv-x="1726" d="M-12 88q0 16 32 -8q123 -86 402.5 -86t571.5 83t503 242q158 119 240 240q86 127 85.5 226.5t-55.5 181.5q-115 166 -436 213q-92 14 -180 14q-326 0 -639 -117q-238 -88 -360 -205q-80 -72 -80 -135q0 -39 20.5 -65.5t10 -32.5t-20.5 4q-51 59 -51 150q0 147 116 241 q160 127 446 212t537.5 85t413.5 -69q319 -135 320 -465q0 -268 -236 -514q-279 -289 -801 -377q-158 -27 -286 -27q-449 0 -543 184q-10 20 -10 25zM182 481q0 57 41 92q188 47 330 74q18 25 55 76q281 385 314 401q2 2 8 2h22q14 0 15 -6q0 -14 -17 -30 q-100 -111 -340 -433q258 37 322 37q20 2 19 -15t-21 -22q-289 -55 -381 -86q-162 -225 -227 -401q-6 -16 -12.5 -16t-15.5 8t-1 45q27 111 190 342q-29 -10 -82 -25q-109 -33 -206 -63q-12 -4 -13 20z" />
<glyph unicode="&#xd1;" horiz-adv-x="1198" d="M-156 -289q0 119 360.5 693.5t483.5 719.5q53 168 121 219q14 10 44 10.5t96.5 -26.5t66.5 -63q0 -16 -17 -29q-92 -78 -143 -293t-51 -438q0 -266 61 -416q84 217 384 722t335 505q2 0 19 2q63 8 63 -10q0 -8 -14 -33q-209 -272 -434.5 -635t-331.5 -596q41 -68 96 -94 q25 -12 47.5 -12t34.5 7t16 4t4 -9.5t-4 -10.5q-47 -35 -86 -34q-123 0 -209 117.5t-129 293.5t-43 334q0 176 39 352q-219 -297 -456.5 -685t-325.5 -593q-10 -23 -18.5 -22.5t-8.5 20.5zM1085 1434q0 4 11 14q115 115 190.5 115t125.5 -21.5t62.5 -31t28.5 -9.5 q70 0 92 51q23 -2 23 -24q0 -31 -45 -68q-72 -53 -128 -53t-87 19.5t-68 46.5q-41 29 -63 28q-51 0 -113 -65q-18 -18 -23.5 -12t-5.5 10z" />
<glyph unicode="&#xd2;" horiz-adv-x="1228" d="M20 293q0 205 150 446q111 176 271.5 314.5t266 172.5t182.5 34t132 -52q61 -55 61 -164q0 -63 -22 -131q-8 -25 -14.5 -12.5t1 36.5t7.5 50q0 90 -107 90q-154 0 -382 -147.5t-343 -304.5q-158 -217 -157 -392q0 -190 213 -225q31 -6 63 -6q113 0 272 57 q289 102 465 324q236 293 236 651q0 29 -3 92.5t-30 118.5q-45 94 -106 76q-10 -4 -11 2q2 25 51.5 25t98.5 -41q82 -66 82 -253.5t-83 -362.5t-227 -357q-178 -225 -423 -359q-127 -68 -261 -67q-182 0 -290 129q-92 109 -93 256zM926 1626q0 14 9 26.5t53 24t51.5 11.5 t3 -8.5t-4.5 -18.5q0 -41 92.5 -113.5t184.5 -87.5q29 -4 28.5 -15t-82 -1t-175 52t-127 79t-33.5 51z" />
<glyph unicode="&#xd3;" horiz-adv-x="1228" d="M20 293q0 205 150 446q111 176 271.5 314.5t266 172.5t182.5 34t132 -52q61 -55 61 -164q0 -63 -22 -131q-8 -25 -14.5 -12.5t1 36.5t7.5 50q0 90 -107 90q-154 0 -382 -147.5t-343 -304.5q-158 -217 -157 -392q0 -190 213 -225q31 -6 63 -6q113 0 272 57 q289 102 465 324q236 293 236 651q0 29 -3 92.5t-30 118.5q-45 94 -106 76q-10 -4 -11 2q2 25 51.5 25t98.5 -41q82 -66 82 -253.5t-83 -362.5t-227 -357q-178 -225 -423 -359q-127 -68 -261 -67q-182 0 -290 129q-92 109 -93 256zM891 1440q-2 12 33 14q104 6 224 83 t120 124q0 8 -4 15t3 7t47.5 -14t71.5 -43q4 -6 4.5 -21.5t-46 -54.5t-157 -78.5t-201.5 -43t-95 11.5z" />
<glyph unicode="&#xd4;" horiz-adv-x="1228" d="M20 293q0 205 150 446q111 176 271.5 314.5t266 172.5t182.5 34t132 -52q61 -55 61 -164q0 -63 -22 -131q-8 -25 -14.5 -12.5t1 36.5t7.5 50q0 90 -107 90q-154 0 -382 -147.5t-343 -304.5q-158 -217 -157 -392q0 -190 213 -225q31 -6 63 -6q113 0 272 57 q289 102 465 324q236 293 236 651q0 29 -3 92.5t-30 118.5q-45 94 -106 76q-10 -4 -11 2q2 25 51.5 25t98.5 -41q82 -66 82 -253.5t-83 -362.5t-227 -357q-178 -225 -423 -359q-127 -68 -261 -67q-182 0 -290 129q-92 109 -93 256zM967 1436q0 6 7 18t14 12h9q45 0 123 41 t152 101q20 33 67 71.5t51.5 38.5t-9 -26.5t-13.5 -57.5q0 -94 44 -140t81 -46q6 0 21.5 2t15.5 -6q0 -10 -39 -21.5t-85 -11.5t-87 29q-66 45 -64 110q-68 -55 -143.5 -87.5t-128.5 -32.5h-6q-10 0 -10 6z" />
<glyph unicode="&#xd5;" horiz-adv-x="1228" d="M20 293q0 205 150 446q111 176 271.5 314.5t266 172.5t182.5 34t132 -52q61 -55 61 -164q0 -63 -22 -131q-8 -25 -14.5 -12.5t1 36.5t7.5 50q0 90 -107 90q-154 0 -382 -147.5t-343 -304.5q-158 -217 -157 -392q0 -190 213 -225q31 -6 63 -6q113 0 272 57 q289 102 465 324q236 293 236 651q0 29 -3 92.5t-30 118.5q-45 94 -106 76q-10 -4 -11 2q2 25 51.5 25t98.5 -41q82 -66 82 -253.5t-83 -362.5t-227 -357q-178 -225 -423 -359q-127 -68 -261 -67q-182 0 -290 129q-92 109 -93 256z" />
<glyph unicode="&#xd6;" horiz-adv-x="1228" d="M20 293q0 205 150 446q111 176 271.5 314.5t266 172.5t182.5 34t132 -52q61 -55 61 -164q0 -63 -22 -131q-8 -25 -14.5 -12.5t1 36.5t7.5 50q0 90 -107 90q-154 0 -382 -147.5t-343 -304.5q-158 -217 -157 -392q0 -190 213 -225q31 -6 63 -6q113 0 272 57 q289 102 465 324q236 293 236 651q0 29 -3 92.5t-30 118.5q-45 94 -106 76q-10 -4 -11 2q2 25 51.5 25t98.5 -41q82 -66 82 -253.5t-83 -362.5t-227 -357q-178 -225 -423 -359q-127 -68 -261 -67q-182 0 -290 129q-92 109 -93 256zM1035 1499q3 33 32 65.5t76 32.5 q14 0 31.5 -14t13.5 -44t-28.5 -58.5t-56.5 -36.5t-51.5 7t-16.5 48zM1284 1499q4 31 29 60q32 38 73 38q51 0 52 -55q0 -31 -27 -60.5t-58.5 -37.5t-52 8t-16.5 47z" />
<glyph unicode="&#xd7;" horiz-adv-x="634" d="M-53 7q0 5 6 13q49 74 217 240h-2q-47 125 -47 190.5t18.5 97.5t73.5 56.5t66 24.5q14 0 3.5 -25.5t-10.5 -60.5q1 -119 21 -162q258 229 315 229q14 0 22.5 -7t8.5 -14t-45 -38q-104 -68 -285 -227q23 -102 64 -187q63 -125 143 -125q43 0 62 25q4 4 8 1t0 -7 q-31 -41 -82 -41q-203 0 -314 223q-186 -178 -204.5 -199.5t-28.5 -16.5t-10 10z" />
<glyph unicode="&#xd8;" horiz-adv-x="1228" d="M20 293q0 205 150 446q111 176 271.5 314.5t266 172.5t182.5 34t132 -52q61 -55 61 -164q0 -63 -22 -131q-8 -25 -14.5 -12.5t1 36.5t7.5 50q0 90 -107 90q-154 0 -382 -147.5t-343 -304.5q-158 -217 -157 -392q0 -190 213 -225q31 -6 63 -6q113 0 272 57 q289 102 465 324q236 293 236 651q0 29 -3 92.5t-30 118.5q-45 94 -106 76q-10 -4 -11 2q2 25 51.5 25t98.5 -41q82 -66 82 -253.5t-83 -362.5t-227 -357q-178 -225 -423 -359q-127 -68 -261 -67q-182 0 -290 129q-92 109 -93 256z" />
<glyph unicode="&#xd9;" horiz-adv-x="1380" d="M39 1070q0 30 15.5 54.5t27.5 34.5q96 78 340 119q123 23 250 22.5t222 -53.5t95 -157q0 -25 -6 -54q-20 -102 -186 -420.5t-197 -409.5t-31 -139.5t21.5 -79t66.5 -30.5t121 40t157 112.5t138 139t134 176.5t112 169q141 229 199 328q20 35 33.5 34.5t20.5 -7.5t7 -13 t-2 -10q-373 -651 -397 -1045q-4 -47 -4 -85t20 -89q25 -63 90 -63q31 0 50.5 17t20.5 8t-11 -19q-31 -29 -91 -29h-14q-207 16 -207 254q0 94 33 225q23 78 86 199q-209 -272 -385 -358q-63 -29 -112.5 -29t-86.5 40t-37 92t15.5 118.5t136.5 386.5q152 399 152 498 q0 137 -178.5 137t-417.5 -119q-78 -37 -108 -61.5t-44 -24.5q-23 0 -36 30.5t-13 60.5zM1096 1327q0 14 8 26.5t52 24t52.5 11.5t4 -8.5t-4.5 -18.5q0 -41 92.5 -113.5t186.5 -87.5q25 -4 26 -10q4 -14 -53 -10q-110 14 -203.5 56t-127 79t-33.5 51z" />
<glyph unicode="&#xda;" horiz-adv-x="1380" d="M39 1070q0 30 15.5 54.5t27.5 34.5q96 78 340 119q123 23 250 22.5t222 -53.5t95 -157q0 -25 -6 -54q-20 -102 -186 -420.5t-197 -409.5t-31 -139.5t21.5 -79t66.5 -30.5t121 40t157 112.5t138 139t134 176.5t112 169q141 229 199 328q20 35 33.5 34.5t20.5 -7.5t7 -13 t-2 -10q-373 -651 -397 -1045q-4 -47 -4 -85t20 -89q25 -63 90 -63q31 0 50.5 17t20.5 8t-11 -19q-31 -29 -91 -29h-14q-207 16 -207 254q0 94 33 225q23 78 86 199q-209 -272 -385 -358q-63 -29 -112.5 -29t-86.5 40t-37 92t15.5 118.5t136.5 386.5q152 399 152 498 q0 137 -178.5 137t-417.5 -119q-78 -37 -108 -61.5t-44 -24.5q-23 0 -36 30.5t-13 60.5zM1137 1143q-2 4 8 8l24 4q106 8 225 84t119 123q0 8 -4 15t3.5 7t47 -13t72.5 -42q4 -6 4 -12q0 -27 -46 -66t-156.5 -77.5t-237.5 -43.5q-55 -4 -59 13z" />
<glyph unicode="&#xdb;" horiz-adv-x="1380" d="M39 1070q0 30 15.5 54.5t27.5 34.5q96 78 340 119q123 23 250 22.5t222 -53.5t95 -157q0 -25 -6 -54q-20 -102 -186 -420.5t-197 -409.5t-31 -139.5t21.5 -79t66.5 -30.5t121 40t157 112.5t138 139t134 176.5t112 169q141 229 199 328q20 35 33.5 34.5t22.5 -9.5t3 -21 q-373 -651 -397 -1045q-4 -47 -4 -85t20 -89q25 -63 90 -63q31 0 50.5 17t20.5 8t-11 -19q-31 -29 -91 -29h-14q-207 16 -207 254q0 94 33 225q23 78 86 199q-209 -272 -385 -358q-63 -29 -112.5 -29t-86.5 40t-37 92t15.5 118.5t136.5 386.5q152 399 152 498 q0 137 -178.5 137t-417.5 -119q-78 -37 -108 -61.5t-44 -24.5q-23 0 -36 30.5t-13 60.5zM1077 1201q0 7 8.5 19.5t15.5 11.5t9 -1q43 0 120 40t148 97q29 41 75 78t50 37t-11 -25.5t-15 -70t22 -89.5q41 -84 105 -84q6 0 21 2.5t15 -6.5q0 -12 -38.5 -23t-85 -11t-86.5 28 q-64 45 -64 113q-68 -57 -143.5 -90t-110.5 -33t-35 7z" />
<glyph unicode="&#xdc;" horiz-adv-x="1380" d="M39 1070q0 30 15.5 54.5t27.5 34.5q96 78 340 119q123 23 250 22.5t222 -53.5t95 -157q0 -25 -6 -54q-20 -102 -186 -420.5t-197 -409.5t-31 -139.5t21.5 -79t66.5 -30.5t121 40t157 112.5t138 139t134 176.5t112 169q141 229 199 328q20 35 33.5 34.5t20.5 -7.5t7 -13 t-2 -10q-373 -651 -397 -1045q-4 -47 -4 -85t20 -89q25 -63 90 -63q31 0 50.5 17t20.5 8t-11 -19q-31 -29 -91 -29h-14q-207 16 -207 254q0 94 33 225q23 78 86 199q-209 -272 -385 -358q-63 -29 -112.5 -29t-86.5 40t-37 92t15.5 118.5t136.5 386.5q152 399 152 498 q0 137 -178.5 137t-417.5 -119q-78 -37 -108 -61.5t-44 -24.5q-23 0 -36 30.5t-13 60.5zM1161 1244q4 30 28.5 58.5t45 33.5t34 5t31 -12t14.5 -45t-27.5 -60.5t-56.5 -34.5t-52.5 9t-16.5 46zM1411 1244q4 30 28.5 58.5t45 33.5t34 5t31 -12t14.5 -45t-29 -60.5 t-56.5 -34.5t-51 9t-16.5 46z" />
<glyph unicode="&#xdd;" horiz-adv-x="1867" d="M18 967q0 115 125 188q150 86 363 139q229 59 416 60q291 0 307 -156v-42t-10.5 -70t-43 -115.5t-63.5 -127t-153.5 -262t-186 -336.5t-63.5 -193.5t51 -63.5q57 0 176 101t219 218t143 180q332 481 410 742q14 47 31 51q18 16 28 -12q39 -104 39 -267t-65 -413 q-113 -442 -289 -680q-137 -186 -313 -302t-359.5 -116t-307.5 106.5t-153 331.5q-2 16 3.5 22.5t12.5 0.5t9 -19q27 -172 130.5 -280.5t240.5 -108.5q199 0 411 244q365 416 512 862q96 287 97 488v39q-49 -166 -166 -375q-166 -293 -371 -514q-319 -344 -473 -344 q-78 0 -78 82q0 55 39 156.5t84 187.5q86 166 191.5 343t127 249.5t21.5 113.5q0 150 -219 150t-588 -123q-254 -88 -254 -162q0 -27 37 -53q10 -6 -2 -7t-21 5q-45 31 -45 82zM1309 1360q-4 10 13 12t19 2q106 8 224 84t118 123q0 8 -4 15.5t3.5 7.5t48 -14.5t71.5 -43.5 q4 -6 4 -21.5t-46 -54t-156.5 -78.5t-201.5 -43t-93 11z" />
<glyph unicode="&#xde;" horiz-adv-x="1103" d="M-31 -463q0 80 219 416q-82 20 -135 63q-61 49 -61 102.5t37 88.5q16 14 17 3t-11 -28.5t-12 -36.5q0 -125 186 -161q70 104 248 383.5t248 386.5q-389 -92 -533 -215q-35 -27 -24.5 -44.5t4 -19.5t-16.5 6q-43 27 -55 64t-12 54t10 28q63 94 276 175t463 122 q250 377 264 376q8 0 16.5 -18t6.5 -27q-94 -137 -211 -319q111 14 194.5 14t179 -26.5t150.5 -87.5q70 -80 70 -193q0 -152 -135 -305q-78 -88 -189 -154q-170 -98 -409.5 -171.5t-409.5 -73.5q-45 0 -88 4q-184 -272 -231 -392q-12 -35 -41 -34q-14 0 -15 20zM281 -25 q20 -2 43 -2q182 0 432 82t379 169t190 176t61 165t-47 135q-82 102 -295 103q-123 0 -253 -31q-428 -682 -510 -797z" />
<glyph unicode="&#xdf;" horiz-adv-x="1316" d="M-340 -332q0 12 25 25q90 41 266 354q37 63 123 223q190 358 272 482.5t104.5 159t78 107.5t92 110.5t97 91t113.5 82.5q135 68 269 67q342 0 342 -213q0 -84 -99 -172q-154 -139 -405 -227q-45 -14 -45 -31q4 -14 39 -16q170 -6 270 -62q121 -68 121 -190 q0 -162 -164 -318q-272 -260 -704 -260q-113 0 -200 23.5t-113.5 41t-64.5 48.5t-18 31q10 0 61.5 -18.5t190 -18.5t296 31.5t270 95t178.5 143.5q80 96 80 195q0 53 -29 108t-115 85t-153.5 30t-104.5 -4t-37 24q2 39 70 66l39 12q504 123 504 340q0 178 -240 178 q-125 0 -254 -100q-285 -223 -856 -1233q-90 -160 -113 -186l-49 -56q-37 -41 -96 -65q-8 -2 -18.5 -2t-16.5 7t-6 11z" />
<glyph unicode="&#xe0;" horiz-adv-x="987" d="M-10 106q0 152 135 297q102 109 254 154q68 23 132 23t124.5 -36t77.5 -85q61 0 88 -45q4 -6 4 -20.5t-15.5 -33t-38 -45t-46 -57.5t-59.5 -84t-36 -90t32 -37t103 39q143 82 318 246q20 20 27 6v-8t-9 -15q-352 -332 -512 -331q-47 0 -78.5 31.5t-31.5 74.5t37 131 q-92 -115 -197.5 -177t-165 -62t-101.5 35.5t-42 88.5zM152 78q0 -43 34 -43q29 0 95.5 37t175.5 145q6 6 47 45t69 68q96 100 96.5 144t-67.5 44q-43 0 -102 -26q-104 -45 -199 -156q-150 -176 -149 -258zM420 880.5q0 14.5 8 27t52 23.5t51.5 11t4 -7t-3.5 -17 q0 -41 93.5 -114t185.5 -87q25 -4 29 -12q4 -16 -81 -5t-178.5 53t-127 77.5t-33.5 50z" />
<glyph unicode="&#xe1;" horiz-adv-x="987" d="M-10 106q0 152 135 297q102 109 254 154q68 23 132 23t124.5 -36t77.5 -85q61 0 88 -45q4 -6 4 -20.5t-15.5 -33t-38 -45t-46 -57.5t-59.5 -84t-36 -90t32 -37t103 39q143 82 318 246q20 20 27 6v-8t-9 -15q-352 -332 -512 -331q-47 0 -78.5 31.5t-31.5 74.5t37 131 q-92 -115 -197.5 -177t-165 -62t-101.5 35.5t-42 88.5zM152 78q0 -43 34 -43q29 0 95.5 37t175.5 145q6 6 47 45t69 68q96 100 96.5 144t-67.5 44q-43 0 -102 -26q-104 -45 -199 -156q-150 -176 -149 -258zM428 686q-4 12 33 14q106 6 224 82t118 123q0 10 -3 17.5t3 7.5 t43 -11t72 -42q8 -8 8 -25.5t-46 -56.5t-157 -78t-202 -42t-93 11z" />
<glyph unicode="&#xe2;" horiz-adv-x="987" d="M-10 106q0 152 135 297q102 109 254 154q68 23 132 23t124.5 -36t77.5 -85q61 0 88 -45q4 -6 4 -20.5t-15.5 -33t-38 -45t-46 -57.5t-59.5 -84t-36 -90t32 -37t103 39q143 82 318 246q20 20 27 6v-8t-9 -15q-352 -332 -512 -331q-47 0 -78.5 31.5t-31.5 74.5t37 131 q-92 -115 -197.5 -177t-165 -62t-101.5 35.5t-42 88.5zM152 78q0 -43 34 -43q29 0 95.5 37t175.5 145q6 6 47 45t68.5 67.5t47 52.5t35.5 50q25 47 0 72q-23 14 -59.5 14t-95.5 -26q-104 -45 -199 -156q-149 -176 -149 -258zM356.5 702.5q-0.5 6.5 8 18.5t15.5 12h9 q45 0 121 39t147 98q0 2 5 7q23 33 68.5 70.5t49.5 37.5t-9 -26.5t-13 -57.5q0 -94 44 -140t81 -46q6 0 21.5 2t15.5 -6q0 -10 -39 -21.5t-85 -11.5t-87 27q-63 45 -64 112q-68 -55 -143.5 -88t-128.5 -33h-6q-10 0 -10.5 6.5z" />
<glyph unicode="&#xe3;" horiz-adv-x="987" d="M-10 106q0 152 135 297q102 109 254 154q68 23 132 23t124.5 -36t77.5 -85q61 0 88 -45q4 -6 4 -20.5t-15.5 -33t-38 -45t-46 -57.5t-59.5 -84t-36 -90t32 -37t103 39q143 82 318 246q20 20 27 6v-8t-9 -15q-352 -332 -512 -331q-47 0 -78.5 31.5t-31.5 74.5t37 131 q-92 -115 -197.5 -177t-165 -62t-101.5 35.5t-42 88.5zM152 78q0 -43 34 -43q29 0 95.5 37t175.5 145q6 6 47 45t69 68q96 100 96.5 144t-67.5 44q-43 0 -102 -26q-104 -45 -199 -156q-150 -176 -149 -258zM394.5 708q-7.5 9 4.5 21q121 115 194 115t119 -21.5t67.5 -32 t36.5 -10.5t32 6q39 20 51 48q18 -4 23 -19q6 -33 -45 -74q-74 -55 -160 -55q-27 0 -56.5 19.5t-66.5 46.5q-41 29 -66 28q-47 0 -110 -63q-16 -18 -23.5 -9z" />
<glyph unicode="&#xe4;" horiz-adv-x="987" d="M-10 106q0 152 135 297q102 109 254 154q68 23 132 23t124.5 -36t77.5 -85q61 0 88 -45q4 -6 4 -20.5t-15.5 -33t-38 -45t-46 -57.5t-59.5 -84t-36 -90t32 -37t103 39q143 82 318 246q20 20 27 6v-8t-9 -15q-352 -332 -512 -331q-47 0 -78.5 31.5t-31.5 74.5t37 131 q-92 -115 -197.5 -177t-165 -62t-101.5 35.5t-42 88.5zM152 78q0 -43 34 -43q29 0 95.5 37t175.5 145q6 6 47 45t69 68q96 100 96.5 144t-67.5 44q-43 0 -102 -26q-104 -45 -199 -156q-150 -176 -149 -258zM481 729q4 31 29 59.5t45 33.5t33.5 5t31 -13t14.5 -45 t-28.5 -58.5t-56.5 -35.5t-51.5 7t-16.5 47zM730 729.5q3 31.5 30 58.5q33 39 78 39q14 0 31.5 -14t13.5 -44t-29 -57.5t-55.5 -36.5t-51 7t-17.5 47.5z" />
<glyph unicode="&#xe5;" horiz-adv-x="987" d="M-10 106q0 152 135 297q102 109 254 154q68 23 132 23t124.5 -36t77.5 -85q61 0 88 -45q4 -6 4 -20.5t-15.5 -33t-38 -45t-46 -57.5t-59.5 -84t-36 -90t32 -37t103 39q143 82 318 246q20 20 27 6v-8t-9 -15q-352 -332 -512 -331q-47 0 -78.5 31.5t-31.5 74.5t37 131 q-92 -115 -197.5 -177t-165 -62t-101.5 35.5t-42 88.5zM152 78q0 -43 34 -43q29 0 95.5 37t175.5 145q6 6 47 45t69 68q96 100 96.5 144t-67.5 44q-43 0 -102 -26q-104 -45 -199 -156q-150 -176 -149 -258zM451 694q-14 72 53 162q43 57 86 94q69 56 151 56q123 0 123 -99 q0 -72 -71.5 -148.5t-190.5 -111.5q-43 -12 -74 -12q-68 0 -77 59zM492 730q0 -54 47 -54q25 0 69.5 18.5t91.5 67.5q53 57 53.5 101t-20.5 48q-24 13 -51 13q-59 0 -124.5 -70t-65.5 -124z" />
<glyph unicode="&#xe6;" horiz-adv-x="1200" d="M-10 106q0 152 135 297q102 109 254 154q68 23 132 23t118.5 -32t75.5 -69q133 86 270 86q117 0 155 -49q16 -25 16.5 -52.5t-18.5 -60.5q-37 -63 -138 -111t-191 -48q-35 0 -39 6t4 10l24 2q82 0 192 58.5t110 121.5q0 59 -74 60q-109 0 -252 -168q-113 -133 -113 -223 q0 -39 32 -65t91 -26q98 0 249 104.5t251 205.5q25 23 24 0q0 -14 -12 -27q-193 -174 -280 -231q-156 -104 -295 -107q-33 -4 -64 -4q-90 0 -138 41t-48 88q0 45 35 131q-92 -115 -197.5 -177t-165 -62t-101.5 35.5t-42 88.5zM152 78q0 -43 34 -43q29 0 95.5 37t175.5 145 q6 6 47 45t69 68q96 100 96.5 144t-67.5 44q-43 0 -102 -26q-104 -45 -199 -156q-150 -176 -149 -258z" />
<glyph unicode="&#xe7;" horiz-adv-x="700" d="M-111 -399q0 20 53.5 25t73 9.5t39.5 24.5q33 33 33 61.5t-19.5 68.5t-19.5 58q0 80 70 129q-127 33 -127 162q0 174 156.5 300t326.5 126q106 0 143 -49q23 -25 23 -52.5t-14.5 -57t-46 -29.5t-9 39.5t22.5 68.5q0 39 -41 39q-35 0 -107.5 -31.5t-162.5 -136.5 q-109 -129 -109 -229q0 -76 57 -102q18 -8 43 -9q84 0 198 72t294 238q29 29 29 0q0 -12 -13 -23q-250 -229 -368.5 -283.5t-210.5 -54.5q-25 0 -49 4q-45 -33 -45 -75q0 -20 44 -83t44 -100q0 -8 -2 -14q-27 -104 -295 -105q-10 0 -11 9z" />
<glyph unicode="&#xe8;" horiz-adv-x="700" d="M-8 139q0 174 155.5 300t325.5 126q115 0 154 -49q16 -25 16 -52.5t-18 -60.5q-37 -63 -138.5 -111t-191.5 -48q-35 0 -38 6t5 9t23 3q81 0 192 57q109 59 109 121t-74 62q-35 0 -74 -19q-86 -39 -166 -135q-98 -119 -98 -221q0 -39 21.5 -73t76.5 -34q96 0 244 101.5 t254 204.5q25 25 25 2q0 -14 -13 -25q-76 -70 -101.5 -93.5t-101 -83.5t-122.5 -85q-145 -76 -246.5 -76t-160 46t-58.5 128zM223 880.5q0 14.5 8.5 27t52.5 23.5t51 11t7 -6q-6 -10 -6 -21q0 -41 93 -112.5t185 -85.5q25 -4 27 -10q4 -18 -80 -7t-177 53t-127 77.5t-34 50z " />
<glyph unicode="&#xe9;" horiz-adv-x="700" d="M-8 139q0 174 155.5 300t325.5 126q115 0 154 -49q16 -25 16 -52.5t-18 -60.5q-37 -63 -138.5 -111t-191.5 -48q-35 0 -38 6t5 9t23 3q81 0 192 57q109 59 109 121t-74 62q-35 0 -74 -19q-86 -39 -166 -135q-98 -119 -98 -221q0 -39 21.5 -73t76.5 -34q96 0 244 101.5 t254 204.5q25 25 25 2q0 -14 -13 -25q-76 -70 -101.5 -93.5t-101 -83.5t-122.5 -85q-145 -76 -246.5 -76t-160 46t-58.5 128zM328 686q0 6 10 10l22 4q68 4 155 44t138.5 86.5t51.5 76.5q0 8 -3.5 15.5t3 7.5t47 -14.5t71.5 -43.5q4 -6 4 -22t-46 -55t-156.5 -78t-201.5 -42 t-95 11z" />
<glyph unicode="&#xea;" horiz-adv-x="700" d="M-8 139q0 174 155.5 300t325.5 126q115 0 154 -49q16 -25 16 -52.5t-18 -60.5q-37 -63 -138.5 -111t-191.5 -48q-35 0 -38 6t5 9t23 3q81 0 192 57q109 59 109 121t-74 62q-35 0 -74 -19q-86 -39 -166 -135q-98 -119 -98 -221q0 -39 21.5 -73t76.5 -34q96 0 244 101.5 t254 204.5q25 25 26 7t-14 -30q-76 -70 -101.5 -93.5t-101 -83.5t-122.5 -85q-145 -76 -246.5 -76t-160 46t-58.5 128zM278.5 702.5q0.5 6.5 8.5 18.5t15 12h9q45 0 121 39t148 98q0 2 4 7q29 39 72.5 73.5t48 34.5t-4 -14.5t-8.5 -43t41 -82.5t113 -92t117 -38 q-86 -12 -141.5 -24.5t-101.5 -12.5t-85 27q-66 43 -68 110q-150 -119 -266 -119q-23 0 -22.5 6.5z" />
<glyph unicode="&#xeb;" horiz-adv-x="700" d="M-8 139q0 174 155.5 300t325.5 126q115 0 154 -49q16 -25 16 -52.5t-18 -60.5q-37 -63 -138.5 -111t-191.5 -48q-35 0 -38 6t5 9t23 3q81 0 192 57q109 59 109 121t-74 62q-35 0 -74 -19q-86 -39 -166 -135q-98 -119 -98 -221q0 -39 21.5 -73t76.5 -34q96 0 244 101.5 t254 204.5q25 25 25 2q0 -14 -13 -25q-76 -70 -101.5 -93.5t-101 -83.5t-122.5 -85q-145 -76 -246.5 -76t-160 46t-58.5 128zM383 729q4 31 28.5 59.5t45 33.5t34 5t31 -13t14 -45t-28 -58.5t-56 -35.5t-52 7t-16.5 47zM633 729q4 31 28.5 59.5t45 33.5t34 5t30.5 -13 t14 -45t-28.5 -58.5t-56 -35.5t-51 7t-16.5 47z" />
<glyph unicode="&#xec;" horiz-adv-x="557" d="M-47 213q0 14 32.5 41t142.5 135.5t149.5 129t65.5 20.5t38 -7.5t6 -15.5q-84 -86 -140.5 -218t-56.5 -185.5t42 -53.5t139.5 61.5t222.5 174.5q27 25 27 -6q0 -4 -5 -8q-98 -86 -165.5 -141.5t-160.5 -105.5t-153 -50q-74 0 -109.5 32.5t-35.5 71.5q0 74 26.5 117 t90.5 119q-23 -18 -71 -61.5t-66.5 -58t-18.5 8.5zM131 868.5q0 14.5 8 26.5t52.5 23.5t52.5 11.5t4 -8.5t-4 -18.5q0 -41 92 -112.5t186 -85.5q25 -4 27 -13q4 -16 -80 -6t-177 52t-127 79t-34 51.5z" />
<glyph unicode="&#xed;" horiz-adv-x="557" d="M-47 213q0 14 32.5 41t142.5 135.5t149.5 129t65.5 20.5t38 -7.5t6 -15.5q-84 -86 -140.5 -218t-56.5 -185.5t42 -53.5t139.5 61.5t222.5 174.5q27 25 27 -6q0 -4 -5 -8q-98 -86 -165.5 -141.5t-160.5 -105.5t-153 -50q-74 0 -109.5 32.5t-35.5 71.5q0 74 26.5 117 t90.5 119q-23 -18 -71 -61.5t-66.5 -58t-18.5 8.5zM297 686q0 6 10 10l23 4q68 4 154.5 44t138 86.5t51.5 76.5q0 8 -3 15.5t3 7.5t42.5 -11t71.5 -42q8 -8 8.5 -25.5t-45.5 -56.5t-157 -78t-202 -42t-95 11z" />
<glyph unicode="&#xee;" horiz-adv-x="557" d="M-47 213q0 14 32.5 41t142.5 135.5t149.5 129t65.5 20.5t38 -7.5t6 -15.5q-84 -86 -140.5 -218t-56.5 -185.5t42 -53.5t139.5 61.5t222.5 174.5q20 18 27 -2q2 -8 -5 -12q-98 -86 -165.5 -141.5t-160.5 -105.5t-153 -50q-74 0 -109.5 32.5t-35.5 71.5q0 74 26.5 117 t90.5 119q-23 -18 -71 -61.5t-66.5 -58t-18.5 8.5zM131 702.5q0 6.5 8 18.5t15.5 12h9.5q45 0 120.5 39t147.5 98q0 2 4 7q23 33 70 70.5t51 37.5t-10.5 -25.5t-14.5 -70.5t23 -90q39 -84 102 -84q8 0 23.5 2t15.5 -6q0 -10 -39 -21.5t-85 -11.5t-87 27q-66 45 -65 112 q-68 -55 -143.5 -88t-129.5 -33q-16 0 -16 6.5z" />
<glyph unicode="&#xef;" horiz-adv-x="557" d="M-47 213q0 14 32.5 41t142.5 135.5t149.5 129t65.5 20.5t38 -7.5t6 -15.5q-84 -86 -140.5 -218t-56.5 -185.5t42 -53.5t139.5 61.5t222.5 174.5q27 25 27 -6q0 -4 -5 -8q-98 -86 -165.5 -141.5t-160.5 -105.5t-153 -50q-74 0 -109.5 32.5t-35.5 71.5q0 74 26.5 117 t90.5 119q-23 -18 -71 -61.5t-66.5 -58t-18.5 8.5zM237.5 729q4.5 31 29 59.5t45 33.5t33.5 5t30.5 -13t14.5 -45t-27.5 -58.5t-56.5 -35.5t-52.5 7t-16 47zM487.5 729q4.5 31 29 59.5t45 33.5t33.5 5t29.5 -12t16.5 -43t-26.5 -59.5t-58.5 -37.5t-52.5 7t-16 47z" />
<glyph unicode="&#xf0;" horiz-adv-x="819" d="M-123 1010q0 119 164 118q109 0 199 -53t184 -172q76 0 215 -16q12 -2 18.5 -11.5t2 -17.5t-18.5 -8q-90 -2 -168 -12q43 -59 133 -200.5t117 -190t54.5 -122t27.5 -129t-31 -116t-100 -107.5q-35 -25 -85 -24.5t-118 31.5q-127 59 -233 184q-141 166 -142 309 q0 78 56 123q37 23 82 22.5t96 -20.5q104 -43 207 -145q-35 59 -98.5 185t-94.5 181q-201 -35 -225 -39q-20 -4 -13 51.5t29 57.5q86 8 158 12q-102 147 -221 172q-20 8 -45 8q-106 0 -107 -71q0 -14 -11 -19.5t-21.5 0t-10.5 19.5zM281 379q0 -111 73.5 -224.5 t161.5 -158.5q49 -27 82 -27q98 0 98 110.5t-73.5 224.5t-161.5 159q-51 27 -84 26q-96 0 -96 -110z" />
<glyph unicode="&#xf1;" horiz-adv-x="876" d="M-45 18q6 8 115 144q221 281 221 379v14q-31 -49 -106.5 -140t-153.5 -161q-18 -16 -20.5 0t5.5 25q129 111 260 309q-10 10 5 10q4 0 8 -2q68 -27 67 -133q0 -74 -37 -164q80 104 121 150q106 119 210 118.5t120 -88.5q2 -12 2 -36.5t-21.5 -69.5t-91 -141.5t-81 -122 t-8.5 -38t18 -14.5q78 -10 364 277q25 27 25 0q0 -12 -12 -25q-207 -219 -359 -291q-113 -57 -176 -18q-39 25 -39 69t17 89q39 104 213 301q29 33 28.5 51t-38.5 18t-119 -71l-50 -47q-66 -68 -170 -207q-51 -94 -122 -176q-47 -51 -84 -52h-9q-53 0 -102 43zM394.5 708 q-7.5 9 4.5 21q121 115 194 115t119 -21.5t67.5 -32t36.5 -10.5t32 6q39 20 51 48q18 -4 23 -19q6 -33 -45 -74q-74 -55 -160 -55q-27 0 -56.5 19.5t-66.5 46.5q-41 29 -66 28q-47 0 -110 -63q-16 -18 -23.5 -9z" />
<glyph unicode="&#xf2;" horiz-adv-x="763" d="M-45 215q0 14 38 44t111.5 104.5t116.5 109.5q123 102 260 102q51 0 105 -26q78 -37 78 -135q0 -119 -119 -244q-47 -53 -131 -107q168 27 356 203q10 8 18.5 7t8.5 -9t-9 -16q-225 -213 -419 -213h-9q-137 -70 -239 -70q-86 0 -117 58q-16 29 -16 65q0 84 39 164 q-27 -27 -52 -43q-20 -18 -20 6zM23 88q0 -45 36 -76q23 -10 68 -10t137 51q-84 37 -84 129q0 102 77 181t165 98q-22 4 -45 4q-92 0 -201.5 -91t-142.5 -202q-10 -39 -10 -84zM229 178q0 -82 66 -106q59 37 115 96q98 111 98 199q0 43 -27 67q-14 8 -30 8q-45 0 -125 -67 q-96 -82 -97 -197zM260 880.5q0 14.5 8 27t52.5 23.5t51.5 11t7 -6q-6 -10 -6 -21q0 -41 93 -112.5t185 -85.5q25 -4 27 -10q4 -18 -80 -7t-177 53t-127 77.5t-34 50z" />
<glyph unicode="&#xf3;" horiz-adv-x="763" d="M-45 215q0 14 38 44t111.5 104.5t116.5 109.5q123 102 260 102q51 0 105 -26q78 -37 78 -135q0 -119 -119 -244q-47 -53 -131 -107q168 27 356 203q10 8 18.5 7t8.5 -9t-9 -16q-225 -213 -419 -213h-9q-137 -70 -239 -70q-86 0 -117 58q-16 29 -16 65q0 84 39 164 q-27 -27 -52 -43q-20 -18 -20 6zM23 88q0 -45 36 -76q23 -10 68 -10t137 51q-84 37 -84 129q0 102 77 181t165 98q-22 4 -45 4q-92 0 -201.5 -91t-142.5 -202q-10 -39 -10 -84zM229 178q0 -82 66 -106q59 37 115 96q98 111 98 199q0 43 -27 67q-14 8 -30 8q-45 0 -125 -67 q-96 -82 -97 -197zM403 711q-4 12 47.5 15t138.5 43t138 86t51 77q0 8 -3 15t3 7t43 -11t72 -42q8 -8 8 -25.5t-46 -56.5t-156.5 -78t-201.5 -42t-94 12z" />
<glyph unicode="&#xf4;" horiz-adv-x="763" d="M-45 215q0 14 38 44t111.5 104.5t116.5 109.5q123 102 260 102q51 0 105 -26q78 -37 78 -135q0 -119 -119 -244q-47 -53 -131 -107q168 27 356 203q10 8 18.5 7t8.5 -9t-9 -16q-225 -213 -419 -213h-9q-137 -70 -239 -70q-86 0 -117 58q-16 29 -16 65q0 84 39 164 q-27 -27 -52 -43q-20 -18 -20 6zM23 88q0 -45 36 -76q23 -10 68 -10t137 51q-84 37 -84 129q0 102 77 181t165 98q-22 4 -45 4q-92 0 -201.5 -91t-142.5 -202q-10 -39 -10 -84zM229 178q0 -82 66 -106q59 37 115 96q98 111 98 199q0 43 -27 67q-14 8 -30 8q-45 0 -125 -67 q-96 -82 -97 -197zM278.5 702.5q0.5 6.5 8.5 18.5t15 12h9q45 0 121 39t148 98q0 2 4 7q29 39 72.5 73.5t48 34.5t-10 -25.5t-14.5 -70.5t22 -90q40 -84 103 -84q8 0 23.5 2t15.5 -6q0 -10 -39 -21.5t-85 -11.5t-85 27q-66 43 -68 110q-150 -119 -266 -119q-23 0 -22.5 6.5z " />
<glyph unicode="&#xf5;" horiz-adv-x="763" d="M-45 215q0 14 38 44t111.5 104.5t116.5 109.5q123 102 260 102q51 0 105 -26q78 -37 78 -135q0 -119 -119 -244q-47 -53 -131 -107q168 27 356 203q10 8 18.5 7t8.5 -9t-9 -16q-225 -213 -419 -213h-9q-137 -70 -239 -70q-86 0 -117 58q-16 29 -16 65q0 84 39 164 q-27 -27 -52 -43q-20 -18 -20 6zM23 88q0 -45 36 -76q23 -10 68 -10t137 51q-84 37 -84 129q0 102 77 181t165 98q-22 4 -45 4q-92 0 -201.5 -91t-142.5 -202q-10 -39 -10 -84zM229 178q0 -82 66 -106q59 37 115 96q98 111 98 199q0 43 -27 67q-14 8 -30 8q-45 0 -125 -67 q-96 -82 -97 -197z" />
<glyph unicode="&#xf6;" horiz-adv-x="763" d="M-45 215q0 14 38 44t111.5 104.5t116.5 109.5q123 102 260 102q51 0 105 -26q78 -37 78 -135q0 -119 -119 -244q-47 -53 -131 -107q168 27 356 203q10 8 18.5 7t8.5 -9t-9 -16q-225 -213 -419 -213h-9q-137 -70 -239 -70q-86 0 -117 58q-16 29 -16 65q0 84 39 164 q-27 -27 -52 -43q-20 -18 -20 6zM23 88q0 -45 36 -76q23 -10 68 -10t137 51q-84 37 -84 129q0 102 77 181t165 98q-22 4 -45 4q-92 0 -201.5 -91t-142.5 -202q-10 -39 -10 -84zM229 178q0 -82 66 -106q59 37 115 96q98 111 98 199q0 43 -27 67q-14 8 -30 8q-45 0 -125 -67 q-96 -82 -97 -197zM432 729q4 31 34 63.5t75 32.5q14 0 30.5 -12t13.5 -44t-28 -58.5t-56.5 -35.5t-52 7t-16.5 47zM682 729q4 31 28.5 59.5t45 33.5t34 5t30 -12t16.5 -43t-27 -59.5t-58.5 -37.5t-52 7t-16.5 47z" />
<glyph unicode="&#xf7;" d="M178.5 346q-0.5 29 9 56.5t23.5 27.5q156 16 293 16t256 -18q25 -4 24.5 -20.5t-20.5 -16.5q-154 -4 -242 -18.5t-193 -32t-134 -21.5q-16 -2 -16.5 27zM211 111q0 57 35 96q49 53 102 53q23 0 42.5 -15.5t19.5 -55t-42.5 -85t-93.5 -45.5q-25 0 -44 16.5t-19 35.5z M483 596q0 39 42 85t102 46q16 0 35.5 -16.5t19.5 -34.5q0 -61 -35 -98t-61.5 -44.5t-45 -7.5t-38 15.5t-19.5 54.5z" />
<glyph unicode="&#xf8;" horiz-adv-x="763" d="M-45 213q0 14 36 45t109.5 103.5t110.5 103.5q98 84 209 104q129 185 143 185l47 6q14 0 17 -6l-9 -19l-120 -162q127 -12 157 -108q8 -25 8.5 -57.5t-22.5 -96t-83 -129t-144 -119.5q168 27 356 203q10 8 18.5 7t8.5 -9t-9 -16q-225 -213 -419 -213h-9 q-133 -72 -229 -72q-23 0 -41 4q-55 -98 -68.5 -127.5t-19.5 -29.5t-14 8q-18 20 59 162q-59 33 -59 116q0 76 39 156q-27 -27 -52 -43q-20 -18 -20 4zM20 100q0 -57 39 -88l4 -2q43 74 117 195l2 12q18 121 133 197l33 49q-104 -16 -203 -119q-125 -131 -125 -244zM113 4 q69 4 151 49q-57 25 -74 74q-33 -49 -77 -123zM229 188q-2 -90 66 -116q59 37 115 96q98 111 98 199q0 42 -27 67q-12 6 -33.5 6t-58.5 -20q-45 -63 -160 -232z" />
<glyph unicode="&#xf9;" horiz-adv-x="937" d="M23 274q0 12 14 23q61 53 130 122.5t119 108.5t115 39q74 0 101 -55q10 -20 10 -53t-16.5 -73t-38 -72.5t-52 -73.5t-64.5 -88.5t-34 -69t21 -21.5q37 0 108 66l66 63q100 109 166.5 196t85.5 106q33 39 71 40q61 0 113 -45q-12 -18 -40 -53t-55.5 -70.5t-63.5 -83 t-62.5 -88t-54 -87t-39.5 -78.5q-31 -90 2 -113q10 -10 -4 -10q-4 0 -9 2q-78 27 -77.5 127t65.5 237q-223 -283 -358 -282q-102 0 -103 96q0 35 21.5 102.5t199.5 272.5q25 27 25 45t-24.5 18t-73.5 -36.5t-135 -117.5t-107.5 -99.5t-21.5 5.5zM432 856q0 14 8.5 25.5 t52.5 22.5t51 11t4 -6t-3 -16q0 -41 93 -115t185 -88q27 -4 27 -13t-21 -9q-109 0 -219 50t-144 87t-34 51z" />
<glyph unicode="&#xfa;" horiz-adv-x="937" d="M23 274q0 12 14 23q61 53 130 122.5t119 108.5t115 39q74 0 101 -55q10 -20 10 -53t-16.5 -73t-38 -72.5t-52 -73.5t-64.5 -88.5t-34 -69t21 -21.5q37 0 108 66l66 63q100 109 166.5 196t85.5 106q33 39 71 40q61 0 113 -45q-12 -18 -40 -53t-55.5 -70.5t-63.5 -83 t-62.5 -88t-54 -87t-39.5 -78.5q-31 -90 2 -113q10 -10 -4 -10q-4 0 -9 2q-78 27 -77.5 127t65.5 237q-223 -283 -358 -282q-102 0 -103 96q0 35 21.5 102.5t199.5 272.5q25 27 25 45t-24.5 18t-73.5 -36.5t-135 -117.5t-107.5 -99.5t-21.5 5.5zM530 676q0 10 35 12 q106 6 224 82t118 123q0 10 -3 17.5t3 7.5t43 -11.5t72 -42.5q8 -8 8 -24.5t-46 -56.5t-157 -78q-123 -43 -247 -43q-49 0 -50 14z" />
<glyph unicode="&#xfb;" horiz-adv-x="937" d="M23 274q0 12 14 23q61 53 130 122.5t119 108.5t115 39q74 0 101 -55q10 -20 10 -53t-16.5 -73t-38 -72.5t-52 -73.5t-64.5 -88.5t-34 -69t21 -21.5q37 0 108 66l66 63q100 109 166.5 196t85.5 106q33 39 71 40q61 0 113 -45q-12 -18 -40 -53t-55.5 -70.5t-63.5 -83 t-62.5 -88t-54 -87t-39.5 -78.5q-31 -90 2 -113q10 -10 -4 -10q-4 0 -9 2q-78 27 -77.5 127t65.5 237q-223 -283 -358 -282q-102 0 -103 96q0 35 21.5 102.5t199.5 272.5q25 27 25 45t-24.5 18t-73.5 -36.5t-135 -117.5t-107.5 -99.5t-21.5 5.5zM436 702.5q0 6.5 8.5 18.5 t15.5 12h9q45 0 121 39t147 98q0 2 4 7q23 33 70 70.5t51 37.5t-10 -25.5t-14 -70.5t22 -90q40 -84 103 -84q8 0 23 2t15 -6q0 -10 -38.5 -21.5t-85 -11.5t-86.5 27q-66 45 -66 112q-68 -55 -143.5 -88t-128.5 -33h-7q-10 0 -10 6.5z" />
<glyph unicode="&#xfc;" horiz-adv-x="937" d="M23 274q0 12 14 23q61 53 130 122.5t119 108.5t115 39q74 0 101 -55q10 -20 10 -53t-16.5 -73t-38 -72.5t-52 -73.5t-64.5 -88.5t-34 -69t21 -21.5q37 0 108 66l66 63q100 109 166.5 196t85.5 106q33 39 71 40q61 0 113 -45q-12 -18 -40 -53t-55.5 -70.5t-63.5 -83 t-62.5 -88t-54 -87t-39.5 -78.5q-31 -90 2 -113q10 -10 -4 -10q-4 0 -9 2q-78 27 -77.5 127t65.5 237q-223 -283 -358 -282q-102 0 -103 96q0 35 21.5 102.5t199.5 272.5q25 27 25 45t-24.5 18t-73.5 -36.5t-135 -117.5t-107.5 -99.5t-21.5 5.5zM487 725q0 29 27 61 q35 41 64.5 41t47 -13t14.5 -45t-27.5 -58.5t-46 -32.5t-36 -6t-29 12t-14.5 41zM737 725q0 29 31 65.5t76 36.5q14 0 30.5 -12t16.5 -43t-34 -65.5t-77 -34.5q-14 0 -28.5 12t-14.5 41z" />
<glyph unicode="&#xfd;" horiz-adv-x="854" d="M-535 -272q0 10 4.5 14t10.5 0t6 -12q20 -115 109.5 -186.5t205.5 -71.5q154 0 314.5 117.5t301 309t331.5 560.5q-61 -92 -113 -156q-256 -315 -393 -315q-104 0 -105 98q0 35 15 82q28 82 208 291q25 27 25 45t-24.5 18t-74.5 -36.5t-150.5 -131t-120 -110t-20.5 -1 t25.5 36t118.5 115.5t143.5 133t116.5 39q74 0 101 -55q12 -20 12 -53t-16.5 -73t-38 -71.5t-55 -76.5t-65.5 -90.5t-32 -66t17 -20.5q80 0 299 267q104 125 178 233q66 152 114 166q18 6 45 6t39.5 -22.5t12.5 -34.5t-17.5 -19.5t-31 -6.5t-17.5 1q-59 0 -100 -86 q-25 -53 -63 -169.5t-70.5 -215t-108.5 -229.5t-184.5 -246t-257 -192.5t-304 -77.5t-261 71.5t-130.5 221.5zM489 817q-4 12 33 14q106 6 224 82t118 123q0 10 -3 17.5t3 7.5t43 -11t72 -42q8 -8 8 -24.5t-46 -56.5t-156.5 -79t-201.5 -42t-94 11z" />
<glyph unicode="&#xfe;" horiz-adv-x="763" d="M-322 -477q0 86 103.5 296t273.5 460q-98 -98 -98 -70q0 16 23 37q100 86 181 189.5t294 359.5t235 278q25 25 56.5 25t58.5 -27q0 -2 -235.5 -286.5t-276.5 -340.5q98 92 199 129q49 18 87.5 18.5t77.5 -25t39 -93.5q0 -143 -139 -303q-104 -123 -225 -178 q-68 -33 -113 -33t-83 26.5t-38 94t35 141.5q-422 -596 -422 -719q0 -12 3 -19t-4 -11t-11 -4q-20 0 -21 55zM129 90q0 -88 68 -88q41 0 125 40t163.5 133t112.5 169t33 122t-25 73q-16 12 -51 12t-104 -35q-111 -51 -205 -164q-63 -74 -90 -145.5t-27 -116.5z" />
<glyph unicode="&#xff;" horiz-adv-x="854" d="M-535 -272q0 10 4.5 14t10.5 0t6 -12q20 -115 109.5 -186.5t205.5 -71.5q154 0 314.5 117.5t301 309t331.5 560.5q-61 -92 -113 -156q-256 -315 -393 -315q-104 0 -105 98q0 35 15 82q28 82 208 291q25 27 25 45t-24.5 18t-74.5 -36.5t-150.5 -131t-120 -110t-20.5 -1 t25.5 36t118.5 115.5t143.5 133t116.5 39q74 0 101 -55q12 -20 12 -53t-16.5 -73t-38 -71.5t-55 -76.5t-65.5 -90.5t-32 -66t17 -20.5q80 0 299 267q104 125 178 233q66 152 114 166q18 6 45 6t39.5 -22.5t12.5 -34.5t-17.5 -19.5t-31 -6.5t-17.5 1q-59 0 -100 -86 q-25 -53 -63 -169.5t-70.5 -215t-108.5 -229.5t-184.5 -246t-257 -192.5t-304 -77.5t-261 71.5t-130.5 221.5zM549 873.5q4 29.5 34.5 63.5t73.5 34q14 0 31 -12.5t13.5 -45t-28 -60.5t-56 -35t-52 9.5t-16.5 46zM799 873.5q4 29.5 34.5 63.5t73.5 34q14 0 30.5 -12.5 t13.5 -45t-28.5 -60.5t-56 -35t-51 9.5t-16.5 46z" />
<glyph unicode="&#x152;" horiz-adv-x="2793" d="M20 293q0 205 150 446q111 176 271.5 314.5t266 172.5t182.5 34t132 -52q61 -55 61 -164q0 -63 -22 -131q-8 -25 -14.5 -12.5t1 36.5t7.5 50q0 90 -107 90q-154 0 -382 -147.5t-343 -304.5q-158 -217 -157 -392q0 -190 213 -225q31 -6 63 -6q113 0 272 57q236 82 402 252 q4 264 282 543q16 88 16.5 147.5t-2.5 124t-30 119.5q-45 94 -106 76q-10 -4 -11 2q2 25 51.5 25t98.5 -41q80 -63 80 -232q0 -63 -9 -139q174 152 385 264.5t359.5 145t265.5 32.5t202 -54t89 -144t-39 -176q-6 -12 -12 -13q-14 -4 0 29.5t14 64.5q0 96 -170 97 q-211 0 -574.5 -151.5t-566.5 -340.5l-47 -45q-68 -135 -202 -307q-10 -41 -11 -80q0 -139 150 -213q119 -59 258 -59q426 0 856 231q291 156 430 356q29 39 29 21q0 -8 -6 -25q-55 -156 -374 -365.5t-646 -279.5q-135 -29 -272.5 -28.5t-256.5 55.5q-203 98 -227 303 q-168 -178 -356 -279q-127 -68 -261 -67q-182 0 -290 129q-92 109 -93 256zM1339 610v6q0 20 39 53t126 50.5t172 17.5t188 -12q214 -26 282 -98q12 -16 12.5 -25.5t-4.5 -15.5q-10 -14 -40 6q-72 49 -226 49q-205 0 -375 -51q-78 -23 -106 -23q-53 0 -68 43z" />
<glyph unicode="&#x153;" horiz-adv-x="1120" d="M-45 213q0 14 36 45t109.5 103.5t116.5 109.5q125 104 250 104t176 -83q127 74 252 73q117 0 154 -49q18 -25 18 -52.5t-18 -60.5q-39 -63 -138.5 -111t-189.5 -48q-37 0 -41 6t4 10l25 2q80 0 190 57q111 60 111 123q0 59 -74 60q-35 0 -74 -19q-86 -39 -166 -135 q-100 -119 -100 -221q0 -39 21.5 -73t76.5 -34q96 0 246 103.5t252 206.5q27 25 27 0q0 -14 -15 -27q-233 -215 -327 -262q-145 -76 -252 -76q-156 0 -199 107q-111 -82 -254 -105q-23 -4 -43 -4q-61 0 -101 34t-40 99q0 76 39 156q-27 -27 -52 -43q-20 -18 -20 4zM23 88 q0 -45 36 -76q23 -10 68 -10t137 51q-84 37 -84 129q0 102 77 181t165 98q-22 4 -45 4q-92 0 -201.5 -91t-142.5 -202q-10 -39 -10 -84zM229 178q0 -82 66 -106q49 31 123 104q12 107 90 199q-4 68 -57 67q-45 0 -125 -67q-96 -82 -97 -197z" />
<glyph unicode="&#x178;" horiz-adv-x="1867" d="M18 967q0 115 125 188q150 86 363 139q229 59 416 60q291 0 307 -156v-42t-10.5 -70t-43 -115.5t-63.5 -127t-153.5 -262t-186 -336.5t-63.5 -193.5t51 -63.5q57 0 176 101t219 218t143 180q332 481 410 742q14 47 31 51q18 16 28 -12q39 -104 39 -267t-65 -413 q-113 -442 -289 -680q-137 -186 -313 -302t-359.5 -116t-307.5 106.5t-153 331.5q-2 16 3.5 22.5t12.5 0.5t9 -19q27 -172 130.5 -280.5t240.5 -108.5q199 0 411 244q365 416 512 862q96 287 97 488v39q-49 -166 -166 -375q-166 -293 -371 -514q-319 -344 -473 -344 q-78 0 -78 82q0 55 39 156.5t84 187.5q86 166 191.5 343t127 249.5t21.5 113.5q0 150 -219 150t-588 -123q-254 -88 -254 -162q0 -27 37 -53q10 -6 -2 -7t-21 5q-45 31 -45 82zM1318 1420.5q3 31.5 27.5 58t46 33t36 6.5t31 -13.5t12 -44t-29 -59.5t-55 -36t-51 8.5 t-17.5 47zM1568 1420.5q3 31.5 27.5 58t46 33t36 6.5t30.5 -13.5t12 -44t-28.5 -59.5t-55 -36t-51 8.5t-17.5 47z" />
<glyph unicode="&#x2c6;" horiz-adv-x="681" d="M4 685q0 7 8 21.5t17.5 13.5t11.5 -1q53 0 143 49t174 117q20 35 77 81t61 46q8 0 -8.5 -32t-16.5 -67q0 -106 59 -172q41 -43 86 -43q6 0 23.5 3.5t17.5 -10t-44 -25t-97 -11.5t-100 33q-76 51 -78 129q-80 -66 -166 -102.5t-143 -36.5q-25 0 -25 7z" />
<glyph unicode="&#x2dc;" horiz-adv-x="587" d="M41 716q0 5 8 13q121 115 193.5 115t119 -21.5t68 -32t36.5 -10.5t32 6q39 20 51 48q23 -4 22.5 -30t-45.5 -63q-74 -55 -130 -55t-85.5 19.5t-66.5 46.5q-41 29 -66 28q-47 0 -110 -63q-16 -18 -21.5 -12t-5.5 11z" />
<glyph unicode="&#x2000;" horiz-adv-x="920" />
<glyph unicode="&#x2001;" horiz-adv-x="1841" />
<glyph unicode="&#x2002;" horiz-adv-x="920" />
<glyph unicode="&#x2003;" horiz-adv-x="1841" />
<glyph unicode="&#x2004;" horiz-adv-x="613" />
<glyph unicode="&#x2005;" horiz-adv-x="460" />
<glyph unicode="&#x2006;" horiz-adv-x="306" />
<glyph unicode="&#x2007;" horiz-adv-x="306" />
<glyph unicode="&#x2008;" horiz-adv-x="230" />
<glyph unicode="&#x2009;" horiz-adv-x="368" />
<glyph unicode="&#x200a;" horiz-adv-x="102" />
<glyph unicode="&#x2010;" d="M178 347q0 28 9.5 55.5t23.5 27.5q141 14 267 14t235 -16q25 -4 24.5 -20.5t-20.5 -16.5q-147 -4 -309 -33q-209 -39 -219.5 -39t-10.5 28z" />
<glyph unicode="&#x2011;" d="M178 347q0 28 9.5 55.5t23.5 27.5q141 14 267 14t235 -16q25 -4 24.5 -20.5t-20.5 -16.5q-147 -4 -309 -33q-209 -39 -219.5 -39t-10.5 28z" />
<glyph unicode="&#x2012;" d="M178 347q0 28 9.5 55.5t23.5 27.5q141 14 267 14t235 -16q25 -4 24.5 -20.5t-20.5 -16.5q-147 -4 -309 -33q-209 -39 -219.5 -39t-10.5 28z" />
<glyph unicode="&#x2013;" d="M178.5 347q-0.5 28 9 55.5t23.5 27.5q178 14 274 14q281 0 396 -30q14 -4 14 -16.5t-9.5 -22.5t-23.5 -10q-96 8 -173 8t-124 -4t-73.5 -6.5t-80 -9.5t-71.5 -10t-75.5 -12t-63.5 -10.5t-8 -1.5q-14 0 -14.5 28z" />
<glyph unicode="&#x2014;" horiz-adv-x="1409" d="M178.5 347q-0.5 28 9 55.5t23.5 27.5q176 14 364 14q694 1 807 -30q14 -4 14.5 -16.5t-9 -22.5t-23.5 -10q-98 8 -246.5 8t-456 -14.5t-466.5 -39.5h-2q-14 0 -14.5 28z" />
<glyph unicode="&#x2018;" horiz-adv-x="305" d="M20 682q0 66 74 166q106 143 240 151h6t6 -6q-2 -4 -8 -6q-90 -10 -163 -87t-85 -167q49 59 121 60q18 0 33.5 -13.5t15.5 -31t-6 -44t-45 -65.5q-47 -45 -98.5 -45t-71 29.5t-19.5 58.5z" />
<glyph unicode="&#x2019;" horiz-adv-x="305" d="M8 469q0 6 8 8q88 8 162 85t86 167q-47 -59 -114 -59q-25 0 -40.5 14t-15.5 31q0 55 47 102q51 51 103.5 51t70 -28.5t17.5 -60t-29 -99.5t-110 -139q-92 -78 -177 -78q-8 0 -8 6z" />
<glyph unicode="&#x201a;" horiz-adv-x="468" d="M-20 -213q4 4 8 6q90 8 163.5 85t86.5 167l-11 -8q-51 -51 -104 -51q-25 0 -40 14t-15 31.5t6 44t45 63.5q45 45 97 45t69.5 -28.5t17.5 -60.5t-28.5 -99.5t-110.5 -139t-170 -77.5q-12 0 -14 8z" />
<glyph unicode="&#x201c;" horiz-adv-x="845" d="M72 961.5q0 31.5 28.5 99t112.5 139.5q90 78 174 78q8 0 8 -8q-4 -4 -8 -6q-88 -8 -162 -85t-86 -167q47 59 121 59q18 0 33.5 -14.5t15.5 -30.5q0 -55 -47 -102q-51 -51 -103.5 -51.5t-69.5 28.5t-17 60.5zM356 961.5q0 31.5 29 99t111 139.5q90 78 174 78q8 0 10 -8 q-4 -4 -8 -6q-90 -8 -164 -85t-86 -167q59 59 115 59q25 0 40 -14.5t15 -31.5t-6 -43t-45 -64q-45 -45 -97.5 -45.5t-70 28.5t-17.5 60.5z" />
<glyph unicode="&#x201d;" horiz-adv-x="845" d="M213 804q0 7 8 7q90 10 164 87t86 167q-59 -59 -117 -59q-23 0 -38 13t-15 30.5t6 44t45 65.5q49 43 98.5 43t75.5 -37q12 -20 13 -49q0 -66 -76 -168q-104 -143 -238 -151q-12 0 -12 7zM498 804q0 7 8 7q90 10 162.5 87t85.5 167q-33 -43 -88 -57q-14 -2 -33 -2t-34 14 t-15 31q0 57 47 100q51 51 102 51t78 -37q12 -20 12 -49q0 -66 -73 -168q-106 -143 -240 -151q-12 0 -12 7z" />
<glyph unicode="&#x201e;" horiz-adv-x="671" d="M-20 -213q4 4 8 6q90 8 163.5 85t86.5 167l-11 -8q-51 -51 -104 -51q-25 0 -40 14t-15 31.5t6 44t45 63.5q45 45 97 45t69.5 -28.5t17.5 -60.5t-28.5 -99.5t-110.5 -139t-170 -77.5q-12 0 -14 8zM299 -213q2 4 8 6q88 8 162 85t86 167q-59 -59 -115 -59q-25 0 -40 14 t-15 31.5t6 44t45 63.5q45 45 97.5 45t78.5 -37q10 -20 10.5 -52t-28.5 -99.5t-112 -139t-171 -77.5q-12 0 -12 8z" />
<glyph unicode="&#x2022;" horiz-adv-x="1026" d="M125 420q0 168 118.5 287.5t287.5 119.5t288 -118.5t119 -288.5t-119 -289t-288 -119t-287.5 120t-118.5 288z" />
<glyph unicode="&#x2026;" horiz-adv-x="1122" d="M96 37q0 61 35 98q49 51 102 51q23 0 42.5 -15t19.5 -55t-42 -85t-93 -45q-25 0 -44.5 16t-19.5 35zM449 57q0 39 41.5 84t101.5 45q18 0 37.5 -15t19.5 -34q0 -59 -39 -100q-43 -51 -102 -51q-18 0 -38.5 16t-20.5 55zM817 37q0 61 35 98q49 51 102 51q23 0 42.5 -15 t19.5 -55t-41 -85t-94 -45q-23 0 -43.5 16t-20.5 35z" />
<glyph unicode="&#x202f;" horiz-adv-x="368" />
<glyph unicode="&#x2039;" horiz-adv-x="606" d="M63 371q0 10 35 28q152 90 286 195.5t163 167.5q10 25 37.5 24.5t27.5 -5.5t-2 -7q-63 -137 -372 -328q51 -23 103 -84t73 -141q4 -18 4 -37q0 -57 -43 -106t-49 -49q-12 0 4 26q14 31 14 62q0 102 -100 190q-68 59 -124.5 59.5t-56.5 4.5z" />
<glyph unicode="&#x203a;" horiz-adv-x="602" d="M39 27q68 135 375 325q-51 23 -103.5 84.5t-72.5 141.5q-4 18 -5 38q0 57 43 106.5t50 49.5q12 0 -4 -27q-14 -31 -15 -61q1 -102 101 -190q68 -59 123 -59.5t55 -4.5q0 -10 -17.5 -21.5t-102.5 -62.5t-209 -148.5t-153 -158.5q-10 -23 -49 -25q-18 2 -16 13z" />
<glyph unicode="&#x205f;" horiz-adv-x="460" />
<glyph unicode="&#x20ac;" horiz-adv-x="1867" d="M25 403q0 100 346 105q31 78 84 158q-2 0 -76 -10.5t-119 -10.5t-45 33q0 94 332 104q176 199 438 357q395 236 688 235q178 0 271 -86q55 -51 55 -133q0 -45 -23 -45q-10 0 -14 20q-10 49 -202.5 49.5t-482.5 -118.5t-507 -279q461 -6 494 -26q8 -6 8 -15q0 -34 -43 -34 h-80q-178 0 -506 -27q-100 -96 -154 -170q553 -12 582 -29q10 -6 10 -16q0 -37 -61 -35q-14 2 -70 2q-84 0 -524 -29q-37 -80 -37 -153.5t44 -130t116 -84.5q133 -53 260 -53t254 20q336 59 709 279q16 8 32.5 8t16.5 -14.5t-29 -36.5q-135 -102 -338 -193 q-336 -154 -612 -154q-213 0 -364.5 102.5t-151.5 305.5q0 45 10 96q-96 -8 -159.5 -16t-107.5 -8t-44 32z" />
<glyph unicode="&#x2122;" horiz-adv-x="1306" d="M68 1049.5q0 21.5 10 44.5q47 100 340 135q88 12 149.5 12t139 -8t153.5 -37q109 -43 109 -102q0 -18 -11 -37q-16 -20 -34 -23q-16 0 0 24t16 38q0 76 -256 75q-80 0 -178 -10q-272 -25 -379 -80q-41 -20 -41 -43q0 -12 9 -21t3 -9l-12 4q-18 16 -18 37.5zM283 606 q0 111 92 254q45 70 192 277q12 16 19.5 16t9.5 -4t2 -6l-217 -408q-31 -86 -31 -118.5t2 -43.5q2 -47 31 -55q23 -4 34 5t12 6t-5 -9q-20 -12 -35 -12q-106 0 -106 98zM494 629q2 16 93 179t106.5 192.5t43 66.5t49.5 37h2q14 0 15 -37l-8 -160q0 -152 65.5 -151.5 t294.5 297.5q78 100 86 100q14 0 14 -16q0 -82 -176 -547q-10 -29 -67 -29q-16 0 -15 17q0 4 15.5 35.5t74 186t68.5 177.5q-72 -72 -93.5 -94.5t-58 -56t-65.5 -54.5q-72 -53 -102 -53q-90 0 -105 235q-25 -37 -80 -153.5t-83.5 -150.5t-57.5 -34q-16 0 -16 13z" />
<glyph unicode="&#xe000;" horiz-adv-x="696" d="M0 0v696h696v-696h-696z" />
<glyph unicode="&#xfb01;" horiz-adv-x="1017" d="M-6 -2.5q0 133.5 125 422.5q-10 -4 -15.5 0t-12.5 18.5t-11 36t1 43t30 43.5q29 25 96 39q152 281 293 377q92 63 193.5 63t176 -51t91.5 -147v-4v-13q0 -37 -30 -72.5t-67 -45t-59.5 9t-19.5 54.5t31 65.5t59.5 40t54.5 0.5q-39 66 -129 65.5t-148 -41.5 q-121 -78 -280 -295q113 -10 151 -41q76 -57 62 -84q-4 -10 -37 9.5t-100.5 19.5t-157.5 -25q-141 -207 -209 -424q-29 -94 -29 -155.5t27 -91.5q8 -8 2 -10.5t-8 -2.5t-4 2q-76 61 -76 194.5zM416 209q-2 18 20 37q47 37 154.5 144.5t147.5 128t65.5 20.5t38 -7.5 t6.5 -15.5q-82 -86 -139.5 -219t-57.5 -185.5t43 -52.5t139.5 60.5t221.5 175.5q27 25 26 -6q0 -4 -4 -8q-98 -86 -165.5 -141.5t-161 -105.5t-152.5 -50q-74 0 -109.5 32.5t-35.5 71.5q0 74 28.5 120t89.5 116q-104 -86 -135 -117q-16 -14 -20 2z" />
<glyph unicode="&#xfb02;" horiz-adv-x="1093" d="M-6 -2.5q0 133.5 125 422.5q-10 -4 -15.5 0t-12.5 18.5t-11 36t1 43t30 43.5q29 25 96 39q152 281 293 377q90 63 192 63q41 0 82 -10q150 -35 182 -172l58 94q20 39 20 58q0 43 -47 16q-53 -27 -57 -20.5t6 16.5q49 37 135 69.5t141 34.5q86 0 86 -53q0 -31 -29.5 -82 t-170 -203.5t-170.5 -191.5q-211 -276 -269 -440q-14 -43 -14 -72q0 -55 55 -55q33 0 103.5 26.5t183.5 116.5t152 130t47 39t6 -12.5t-10 -19.5q-174 -178 -289 -256t-215 -78q-82 0 -115 39t-33 90q0 92 66 222q-106 -115 -119 -88q-4 10 12 24q96 78 221.5 242t233.5 336 v2q-16 61 -63 81.5t-76 20.5q-86 0 -152 -43q-121 -78 -280 -295q113 -10 151 -41q76 -57 62 -84q-4 -10 -37 9.5t-100.5 19.5t-157.5 -25q-141 -207 -209 -424q-29 -94 -29 -155.5t27 -91.5q8 -8 2 -10.5t-8 -2.5t-4 2q-76 61 -76 194.5z" />
</font>
</defs>
</svg>
